<svg id="Layer_1" data-name="Layer 1" xmlns="http://www.w3.org/2000/svg" viewBox="0 0 341.4 254.84"><defs><style>.cls-1{fill:#069447;}.cls-2{fill:#118040;}.cls-3{fill:#2db34a;}</style></defs><path class="cls-1" d="M373.66,148.83c0-13.48-5-26-13.57-36.41,6-6.1,9.26-12.87,9.26-20,0-20-26.18-37.23-63.48-44.56-10.56-16.31-32.46-27.53-57.77-27.53a80.22,80.22,0,0,0-29.57,5.53,91.89,91.89,0,0,0-94.09-1.25,69.05,69.05,0,0,0-8.31-.51A69.91,69.91,0,0,0,48.27,77.24c-9.86,13-16,31.23-16,51.48,0,21.06,6.65,40,17.23,53,11.46,42,51.87,73,100,73a111.58,111.58,0,0,0,11.49-.6c11.11,8,26.19,13,42.81,13a78.07,78.07,0,0,0,29.67-5.7,105.42,105.42,0,0,0,25.17,3c46.21,0,84.11-29.26,87.86-66.5C363.13,185.9,373.66,168.37,373.66,148.83Z" transform="translate(-32.26 -12.27)"/><path class="cls-2" d="M357.53,147.79c0-11.94-4.44-23-12-32.28,5.27-5.4,8.21-11.4,8.21-17.73,0-17.77-23.21-33-56.28-39.51-9.37-14.46-28.78-24.4-51.22-24.4A70.9,70.9,0,0,0,220,38.77a81.5,81.5,0,0,0-83.42-1.12,64,64,0,0,0-7.37-.45A62,62,0,0,0,69,84.32C60.29,95.82,54.84,112,54.84,130c0,18.68,5.9,35.46,15.28,47,10.16,37.21,46,64.71,88.63,64.71a97.74,97.74,0,0,0,10.19-.54c9.85,7.12,23.22,11.5,38,11.5a69.16,69.16,0,0,0,26.3-5,93.9,93.9,0,0,0,22.32,2.67c41,0,74.57-25.95,77.9-59C348.2,180.66,357.53,165.12,357.53,147.79Z" transform="translate(-32.26 -12.27)"/><path class="cls-3" d="M342.3,146.74a44,44,0,0,0-10.46-28.08c4.59-4.7,7.15-9.92,7.15-15.42,0-15.46-20.19-28.71-49-34.36-8.15-12.58-25-21.23-44.55-21.23a61.82,61.82,0,0,0-22.81,4.26,70.87,70.87,0,0,0-72.55-1A53.83,53.83,0,0,0,91.38,91.53c-7.6,10-12.35,24.09-12.35,39.7,0,16.24,5.14,30.84,13.29,40.9,8.84,32.37,40,56.28,77.1,56.28a86.43,86.43,0,0,0,8.86-.46c8.57,6.19,20.19,10,33,10a60.21,60.21,0,0,0,22.88-4.39,81.89,81.89,0,0,0,19.41,2.32c35.63,0,64.86-22.57,67.76-51.29C334.19,175.33,342.3,161.81,342.3,146.74Z" transform="translate(-32.26 -12.27)"/></svg>