<svg width="120" height="120" viewBox="0 0 120 120" fill="none" xmlns="http://www.w3.org/2000/svg">
<path d="M22.575 58.1343H13.5308C13.3461 58.1343 13.1632 58.1706 12.9926 58.2413C12.822 58.312 12.667 58.4156 12.5364 58.5462C12.4058 58.6767 12.3022 58.8318 12.2315 59.0024C12.1609 59.173 12.1245 59.3559 12.1245 59.5405C12.1245 59.7252 12.1609 59.9081 12.2315 60.0787C12.3022 60.2493 12.4058 60.4043 12.5364 60.5349C12.667 60.6655 12.822 60.7691 12.9926 60.8397C13.1632 60.9104 13.3461 60.9468 13.5308 60.9468H22.575C22.948 60.9468 23.3057 60.7986 23.5694 60.5349C23.8331 60.2712 23.9813 59.9135 23.9813 59.5405C23.9813 59.1676 23.8331 58.8099 23.5694 58.5462C23.3057 58.2824 22.948 58.1343 22.575 58.1343V58.1343Z" fill="#CD2122"/>
<path d="M22.575 63.1287H13.5308C13.1578 63.1287 12.8001 63.2768 12.5364 63.5406C12.2727 63.8043 12.1245 64.162 12.1245 64.5349C12.1245 64.9079 12.2727 65.2656 12.5364 65.5293C12.8001 65.793 13.1578 65.9412 13.5308 65.9412H22.575C22.948 65.9412 23.3057 65.793 23.5694 65.5293C23.8331 65.2656 23.9813 64.9079 23.9813 64.5349C23.9813 64.162 23.8331 63.8043 23.5694 63.5406C23.3057 63.2768 22.948 63.1287 22.575 63.1287Z" fill="#CD2122"/>
<path d="M22.575 68.1258H13.5308C13.1578 68.1258 12.8001 68.2739 12.5364 68.5376C12.2727 68.8014 12.1245 69.159 12.1245 69.532C12.1245 69.905 12.2727 70.2626 12.5364 70.5264C12.8001 70.7901 13.1578 70.9382 13.5308 70.9382H22.575C22.948 70.9382 23.3057 70.7901 23.5694 70.5264C23.8331 70.2626 23.9813 69.905 23.9813 69.532C23.9813 69.159 23.8331 68.8014 23.5694 68.5376C23.3057 68.2739 22.948 68.1258 22.575 68.1258Z" fill="#CD2122"/>
<path d="M29.8542 85.6313H29.8359C29.0797 85.6288 28.3303 85.7753 27.6307 86.0624C26.9311 86.3496 26.2949 86.7716 25.7584 87.3046C24.6749 88.381 24.0634 89.8438 24.0584 91.371C24.0534 92.8983 24.6553 94.365 25.7317 95.4485C26.8081 96.532 28.2709 97.1435 29.7982 97.1485H29.8153C31.3425 97.1535 32.8093 96.5517 33.8928 95.4753C34.9763 94.3989 35.5878 92.9362 35.5928 91.4089C35.5979 89.8816 34.996 88.4149 33.9196 87.3314C32.8432 86.2479 31.3805 85.6364 29.8532 85.6313H29.8542ZM29.8146 94.336H29.8059C29.4206 94.336 29.0391 94.2592 28.6838 94.11C28.3286 93.9608 28.0066 93.7423 27.7368 93.4672C27.4629 93.1911 27.2462 92.8637 27.0992 92.5036C26.9522 92.1435 26.8779 91.758 26.8804 91.3691C26.8805 90.9838 26.9574 90.6024 27.1066 90.2472C27.2557 89.892 27.4742 89.57 27.7492 89.3002C28.3042 88.7493 29.0551 88.4413 29.8371 88.4438H29.846C30.6273 88.448 31.375 88.7624 31.9246 89.3178C32.4741 89.8733 32.7805 90.6243 32.7764 91.4056C32.7722 92.187 32.4578 92.9347 31.9024 93.4842C31.3469 94.0338 30.5959 94.3402 29.8146 94.336V94.336Z" fill="#CD2122"/>
<path d="M36.6798 46.1394C36.6728 47.6394 37.1666 48.9653 38.0706 49.8735C38.9746 50.7817 40.2217 51.2436 41.7751 51.2436H44.688C45.0609 51.2436 45.4186 51.0955 45.6823 50.8318C45.9461 50.568 46.0942 50.2104 46.0942 49.8374C46.0942 49.4644 45.9461 49.1068 45.6823 48.843C45.4186 48.5793 45.0609 48.4311 44.688 48.4311H41.7751C40.9975 48.4311 40.4216 48.249 40.0642 47.8895C39.6974 47.5211 39.4891 46.888 39.4926 46.1497C39.5059 40.9846 39.516 36.9048 39.4926 31.3703C39.4886 31.243 39.4945 31.1156 39.5101 30.9892C39.6477 30.9529 39.7899 30.9372 39.932 30.9423H55.6506C55.8723 30.9613 57.0304 31.2276 57.4701 32.0624C58.3267 34.0077 59.0364 35.5923 59.7226 37.1249C61.2053 40.4364 62.5073 43.3454 64.6305 48.4304H49.2189C48.8459 48.4304 48.4882 48.5786 48.2245 48.8423C47.9608 49.1061 47.8126 49.4637 47.8126 49.8367C47.8126 50.2097 47.9608 50.5673 48.2245 50.8311C48.4882 51.0948 48.8459 51.2429 49.2189 51.2429H66.7361C66.9673 51.243 67.1949 51.186 67.3989 51.077C67.6028 50.9681 67.7767 50.8105 67.9052 50.6183C68.0337 50.4261 68.1129 50.2052 68.1356 49.9751C68.1584 49.7451 68.1241 49.5129 68.0357 49.2993C65.4016 42.9301 63.959 39.7072 62.2886 35.9758C61.5993 34.4364 60.8866 32.8445 60.0262 30.8898C60.0168 30.8683 60.0067 30.8472 59.9962 30.8261C58.9717 28.7835 56.646 28.1284 55.6719 28.1284H39.9306C38.8893 28.1284 38.0692 28.4226 37.4931 29.0031C36.6686 29.8333 36.6763 30.925 36.6798 31.3853C36.7033 36.9074 36.6932 40.9827 36.6798 46.1394V46.1394Z" fill="#CD2122"/>
<path d="M113.813 70.1087C112.917 70.1069 111.865 70.1064 110.733 70.1064C108.835 66.9195 106.267 64.183 103.207 62.0861V60.7173H104.904C105.525 60.7166 106.121 60.4695 106.56 60.0301C107 59.5907 107.247 58.995 107.248 58.3736V54.1642C107.247 53.5428 107 52.9471 106.56 52.5077C106.121 52.0683 105.525 51.8211 104.904 51.8204H103.207V51.6822C103.207 50.3755 102.34 48.4314 99.9539 48.4314H94.2586V30.347C94.2586 29.974 94.1104 29.6164 93.8467 29.3526C93.583 29.0889 93.2253 28.9408 92.8523 28.9408H92.618V22.847C92.618 22.474 92.4698 22.1164 92.2061 21.8526C91.9424 21.5889 91.5847 21.4407 91.2117 21.4407H90.082V16.847C90.1067 16.3768 90.218 15.9151 90.4102 15.4853C90.7852 14.6884 91.3894 14.3322 92.3679 14.3322H96.0288C96.4018 14.3322 96.7595 14.184 97.0232 13.9203C97.2869 13.6565 97.4351 13.2989 97.4351 12.9259C97.4351 12.5529 97.2869 12.1953 97.0232 11.9315C96.7595 11.6678 96.4018 11.5197 96.0288 11.5197H92.3672C88.627 11.5197 87.2695 14.7055 87.2695 16.847V21.4407H86.1164C85.7434 21.4407 85.3858 21.5889 85.122 21.8526C84.8583 22.1164 84.7102 22.474 84.7102 22.847V28.9408H84.4758C84.1028 28.9408 83.7451 29.0889 83.4814 29.3526C83.2177 29.6164 83.0695 29.974 83.0695 30.347V48.4314H76.8729C75.2557 44.844 73.3104 40.9705 71.4197 37.2121C69.4927 33.38 67.5 29.4175 65.9018 25.8416C64.2471 22.13 58.1484 20.747 54.693 20.747H38.0836C33.4078 20.7545 29.7982 24.0674 29.3451 28.5986H25.6476C25.2747 28.5986 24.917 28.7467 24.6533 29.0104C24.3896 29.2742 24.2414 29.6319 24.2414 30.0048V41.9345C24.2414 42.3075 24.3896 42.6651 24.6533 42.9289C24.917 43.1926 25.2747 43.3407 25.6476 43.3407H29.306C29.3074 44.3251 29.3086 45.2875 29.3086 46.2025C29.3086 45.884 29.3086 45.5582 29.3086 45.2293L6.2653 54.0604C5.99975 54.1622 5.7713 54.3421 5.61012 54.5764C5.44894 54.8108 5.3626 55.0885 5.36249 55.3729V74.7979H3.42889C2.8075 74.7985 2.21176 75.0457 1.77237 75.4851C1.33298 75.9245 1.08583 76.5202 1.08514 77.1416V83.2283C1.08583 83.8497 1.33298 84.4455 1.77237 84.8849C2.21176 85.3243 2.8075 85.5714 3.42889 85.5721H5.36249V88.6494C5.36247 88.8951 5.42678 89.1364 5.54903 89.3495C5.67128 89.5625 5.84721 89.7398 6.05928 89.8637L12.9223 93.8739C13.5048 97.9217 15.5243 101.625 18.6118 104.306C21.6992 106.988 25.6485 108.47 29.738 108.48H29.7912C33.6112 108.496 37.3258 107.228 40.3397 104.881C43.3536 102.534 45.4921 99.2426 46.4126 95.5351H52.8492C53.2222 95.5351 53.5799 95.387 53.8436 95.1233C54.1073 94.8595 54.2555 94.5018 54.2555 94.1289V90.0001H64.5335C66.0885 95.2498 69.3001 99.8556 73.6886 103.129C78.0772 106.403 83.4071 108.169 88.8823 108.164C94.5849 108.174 100.118 106.229 104.56 102.652C108.636 99.395 111.638 94.9865 113.174 90.0001H113.81C116.182 90.0001 118.905 89.4721 118.912 85.3525V83.184C118.912 80.5513 118.915 77.3608 118.907 75.2038C118.902 71.829 117.188 70.1148 113.813 70.1087V70.1087ZM103.207 54.6329H104.435V57.9048H103.207V54.6329ZM27.0539 40.5283V31.4111H29.2948L29.3023 40.5283H27.0539ZM5.36249 82.7603H3.89764V77.6111H5.36249V82.7603ZM87.5227 24.2533H89.8055V28.9408H87.5227V24.2533ZM85.882 31.7532H91.4461V48.4314H85.882V31.7532ZM99.9539 51.2439C100.15 51.2439 100.371 51.2439 100.395 51.7018V60.4178C96.1707 58.2701 91.4304 57.3466 86.7092 57.7517C81.9881 58.1568 77.4743 59.8744 73.6781 62.7102V51.6822C73.6781 51.2439 73.9741 51.2439 74.1166 51.2439H99.9539ZM38.0878 23.5595H54.6937C56.4655 23.5911 58.2201 23.9123 59.8882 24.5104C61.6915 25.1692 62.9144 26.0486 63.3335 26.9879C64.9584 30.6238 66.9663 34.6154 68.9069 38.4756C70.5839 41.81 72.3054 45.2354 73.7892 48.4483C71.6541 48.6191 70.8656 50.4376 70.8656 51.6826V54.2772H34.9439C34.897 54.2244 34.8452 54.1691 34.7984 54.1173C33.0728 52.2182 32.1181 49.7434 32.1211 47.1775L32.1094 29.5408C32.1208 26.0807 34.6352 23.5651 38.0878 23.5595V23.5595ZM50.993 66.8861C49.1654 66.8965 47.3723 66.3895 45.8208 65.4236H70.605C70.1538 65.8904 69.7188 66.3798 69.3005 66.8861H50.993ZM67.282 69.6986C66.4737 70.9995 65.7856 72.3713 65.2261 73.7971L62.6037 73.7994V69.6979L67.282 69.6986ZM42.6351 62.6111C42.2531 62.2111 41.8266 61.7595 41.3557 61.2564H70.8656V62.6111H42.6351ZM38.749 58.4439C38.3543 58.015 37.9385 57.5619 37.5068 57.0892H70.8656V58.4439H38.749ZM43.9453 93.5331C43.857 93.7197 43.8111 93.9234 43.811 94.1298C43.811 94.1732 43.8136 94.2156 43.8176 94.258C43.1615 97.4897 41.4045 100.394 38.8464 102.474C36.2882 104.555 33.0873 105.684 29.7898 105.668H29.7452C26.225 105.658 22.8334 104.344 20.2259 101.979C17.6183 99.6137 15.9798 96.3663 15.6269 92.8637C15.5724 92.3477 15.546 91.829 15.5477 91.3101C15.5691 83.4733 21.9898 77.1123 29.868 77.1123H29.9074C31.779 77.1132 33.6316 77.4867 35.3573 78.211C37.083 78.9353 38.6473 79.996 39.9588 81.3311C41.5266 82.9146 42.7031 84.8421 43.3948 86.9604C44.0865 89.0786 44.2743 91.3291 43.9432 93.5326L43.9453 93.5331ZM102.807 100.453C98.8625 103.631 93.9476 105.36 88.8823 105.352C84.1573 105.356 79.5503 103.877 75.7113 101.122C71.8722 98.3679 68.9951 94.4775 67.4857 90.0001H110.216C108.778 94.1115 106.21 97.7344 102.807 100.453V100.453ZM116.1 83.1845V85.3511C116.1 85.9002 116.036 86.6061 115.736 86.849C115.458 87.0744 114.81 87.1888 113.811 87.1888H52.8492C52.4763 87.1888 52.1186 87.337 51.8548 87.6007C51.5911 87.8644 51.443 88.2221 51.443 88.5951V92.7247H46.8654C46.8966 92.3118 46.916 91.8972 46.9172 91.4826C46.9291 89.2382 46.4989 87.0134 45.651 84.9353C44.8031 82.8572 43.5543 80.9664 41.9757 79.3709C40.3971 77.7755 38.5197 76.5066 36.4507 75.6367C34.3817 74.7668 32.1617 74.3129 29.9173 74.301H29.8704C20.7063 74.301 13.1932 81.5012 12.7584 90.5228L8.17499 87.8439V56.3406L29.3529 48.2242C29.5802 51.1189 30.7629 53.856 32.715 56.0054L41.8052 65.7965C43.7635 67.81 46.3236 69.1319 49.0992 69.5626V82.1181C49.0992 82.4911 49.2474 82.8487 49.5111 83.1125C49.7748 83.3762 50.1325 83.5244 50.5055 83.5244H85.4684C85.8324 84.2698 86.4428 84.8666 87.1964 85.2136C87.9499 85.5607 88.8002 85.6368 89.6033 85.4289C90.4064 85.2211 91.1131 84.7421 91.6036 84.073C92.0942 83.404 92.3385 82.586 92.2952 81.7576C92.2519 80.9291 91.9237 80.141 91.3661 79.5268C90.8085 78.9125 90.0558 78.5098 89.2354 78.3867C88.4149 78.2637 87.5772 78.428 86.8639 78.8517C86.1507 79.2754 85.6058 79.9325 85.3214 80.7119H51.9117V69.6929C53.5798 69.685 55.4862 69.689 57.4898 69.6929C58.2494 69.6946 59.0201 69.6962 59.7921 69.6974V75.2052C59.7921 75.5782 59.9403 75.9359 60.204 76.1996C60.4677 76.4633 60.8254 76.6115 61.1984 76.6115L76.3298 76.596C76.7028 76.596 77.0605 76.4478 77.3242 76.1841C77.5879 75.9204 77.7361 75.5627 77.7361 75.1897C77.7361 74.8168 77.5879 74.4591 77.3242 74.1954C77.0605 73.9316 76.7028 73.7835 76.3298 73.7835L68.2826 73.7929C69.0258 72.1408 69.9655 70.5843 71.0812 69.1572C74.5368 64.7315 79.5166 61.7514 85.05 60.7979C90.5833 59.8443 96.2734 60.9857 101.011 63.9995C103.514 65.5996 105.681 67.6741 107.388 70.1059L101.833 70.1076C99.4711 70.0119 98.4138 70.3173 96.8341 72.2804C96.277 72.9737 95.3719 73.799 94.2234 73.799H94.2162C89.9348 73.7826 84.2084 73.7816 81.1753 73.7814C80.8023 73.7814 80.4447 73.9295 80.1809 74.1933C79.9172 74.457 79.7691 74.8147 79.7691 75.1876C79.7691 75.5606 79.9172 75.9183 80.1809 76.182C80.4447 76.4457 80.8023 76.5939 81.1753 76.5939C84.2053 76.5939 89.9283 76.5939 94.2066 76.6115C96.0112 76.6218 97.6711 75.7288 99.026 74.0432C99.9675 72.8732 100.114 72.8509 101.745 72.9182C101.764 72.9182 101.784 72.9196 101.804 72.9196H113.81C115.624 72.9229 116.095 73.3933 116.098 75.2094C116.103 77.3673 116.101 80.5548 116.1 83.1833V83.1845ZM87.9117 81.9447C87.9111 81.739 87.9913 81.5412 88.1349 81.394C88.2786 81.2468 88.4743 81.1618 88.68 81.1574C88.8856 81.153 89.0848 81.2294 89.2347 81.3703C89.3845 81.5112 89.4731 81.7053 89.4814 81.9109C89.4896 82.1164 89.4169 82.317 89.2788 82.4694C89.1407 82.6219 88.9483 82.7141 88.743 82.7262C88.5376 82.7382 88.3357 82.6692 88.1807 82.534C88.0257 82.3988 87.93 82.2081 87.9141 82.003C87.9124 81.9845 87.9117 81.9644 87.9117 81.9447Z" fill="#CD2122"/>
</svg>
