<svg width="120" height="120" viewBox="0 0 120 120" fill="none" xmlns="http://www.w3.org/2000/svg">
<path d="M108.868 0H11.1272C4.99233 0 0 5.01736 0 11.1839V75.3046C0 81.4731 4.99233 86.4913 11.1272 86.4913H42.3492L37.7323 95.2959H35.3601C34.0006 95.2959 32.7207 95.8286 31.7521 96.7975C30.7889 97.7655 30.2589 99.0527 30.2589 100.424C30.2589 103.251 32.5467 105.551 35.3601 105.551H56.646V112.845C56.646 116.777 59.8283 119.975 63.7394 119.975H93.8857C97.7968 119.975 100.979 116.777 100.979 112.845V95.9344C100.979 94.9453 100.182 94.143 99.1975 94.143C98.2134 94.143 97.415 94.9453 97.415 95.9344V106.628C97.415 108.214 96.1315 109.504 94.554 109.504H63.072C61.4937 109.504 60.2101 108.214 60.2101 106.628V71.2994C60.2101 69.7131 61.4937 68.4231 63.072 68.4231H77.031L77.0319 84.6401L72.8571 80.4453C72.1604 79.7451 71.0325 79.7451 70.3367 80.4453C69.6409 81.1446 69.6409 82.2791 70.3367 82.9774L77.5528 90.2307C77.887 90.5665 78.3402 90.7551 78.8135 90.7551C79.2859 90.7551 79.7391 90.5665 80.0732 90.2307L87.2894 82.9774C87.9861 82.2781 87.9861 81.1446 87.2894 80.4453C86.5936 79.7451 85.4657 79.7451 84.7689 80.4453L80.596 84.6392V68.424H94.5549C96.1324 68.424 97.4159 69.714 97.4159 71.2994V88.7704C97.4159 89.7596 98.2143 90.561 99.1985 90.561C100.183 90.561 100.981 89.7596 100.981 88.7704V86.4913H108.869C115.007 86.4913 120 81.4731 120 75.3055V11.1839C119.999 5.01736 115.006 0 108.868 0V0ZM46.3775 86.4913H56.646V95.2959H41.7615L46.3775 86.4913ZM93.8857 57.9523H80.5951V50.3144H99.3568C102.95 50.3144 105.874 47.3774 105.874 43.766V20.8792C105.874 17.2686 102.95 14.3307 99.3568 14.3307H41.3394C40.3552 14.3307 39.5578 15.1331 39.5578 16.1222C39.5578 17.1113 40.3552 17.9127 41.3394 17.9127H99.3568C100.985 17.9127 102.308 19.2441 102.308 20.8792V43.766C102.308 45.4019 100.985 46.7324 99.3568 46.7324H80.5951L80.5942 41.2173C80.5942 40.2272 79.7968 39.4258 78.8126 39.4258C77.8275 39.4258 77.0301 40.2282 77.0301 41.2173V46.7324H20.6395C19.0117 46.7324 17.6879 45.4019 17.6879 43.766V20.8792C17.6879 19.2441 19.0117 17.9127 20.6395 17.9127H34.2112C35.1953 17.9127 35.9928 17.1113 35.9928 16.1222C35.9928 15.1331 35.1953 14.3307 34.2112 14.3307H20.6395C17.0461 14.3307 14.1237 17.2686 14.1237 20.8792V43.766C14.1237 47.3765 17.0461 50.3144 20.6395 50.3144H77.0301L77.031 57.9523H63.7404C59.8283 57.9523 56.646 61.1506 56.646 65.0822V68.0569H15.3505C12.1325 68.0569 9.51409 65.4254 9.51409 62.1921V16.17C9.51409 12.9377 12.1325 10.3071 15.3505 10.3071H104.649C107.866 10.3071 110.482 12.9377 110.482 16.17V62.1921C110.482 65.4263 107.866 68.0569 104.649 68.0569H100.98V65.0822C100.98 61.1506 97.7977 57.9523 93.8857 57.9523ZM35.3601 101.969C34.5133 101.969 33.823 101.276 33.823 100.424C33.823 100.011 33.9832 99.6222 34.2707 99.3333C34.5636 99.0398 34.95 98.8788 35.3601 98.8788H56.646V101.969H35.3601ZM63.072 113.086H94.554C95.5822 113.086 96.5535 112.841 97.4159 112.408V112.845C97.4159 114.801 95.8321 116.393 93.8857 116.393H63.7404C61.794 116.393 60.2101 114.801 60.2101 112.845V112.408C61.0725 112.841 62.0439 113.086 63.072 113.086V113.086ZM63.072 64.8411C62.0439 64.8411 61.0725 65.0859 60.2101 65.5192V65.0822C60.2101 63.126 61.794 61.5342 63.7404 61.5342H77.031V64.8411H63.072ZM94.554 64.8411H80.5951V61.5342H93.8857C95.8321 61.5342 97.4159 63.126 97.4159 65.0822V65.5192C96.5535 65.0859 95.5822 64.8411 94.554 64.8411V64.8411ZM116.435 75.3046C116.435 79.4976 113.04 82.9084 108.868 82.9084H100.98V71.6389H104.649C109.83 71.6389 114.046 67.4009 114.046 62.1921V16.17C114.046 10.9622 109.83 6.72509 104.649 6.72509H15.3505C10.1669 6.72509 5.94997 10.9622 5.94997 16.17V62.1921C5.94997 67.4009 10.1669 71.6398 15.3505 71.6398H56.646V82.9093H11.1272C6.95704 82.9093 3.56412 79.4976 3.56412 75.3055V11.1839C3.56412 6.99284 6.95704 3.58199 11.1272 3.58199H108.868C113.04 3.58199 116.435 6.99284 116.435 11.1839V75.3046Z" fill="#CD2122"/>
</svg>
