<svg width="120" height="120" viewBox="0 0 120 120" fill="none" xmlns="http://www.w3.org/2000/svg">
<g clip-path="url(#clip0)">
<rect width="120" height="120" fill="white"/>
<g clip-path="url(#clip1)">
<path d="M117.924 18.6992C116.212 16.6234 113.675 15.4337 110.964 15.4337H91.3366C89.9104 15.4337 88.7531 16.591 88.7531 18.0172C88.7531 19.4434 89.9104 20.6007 91.3366 20.6007H110.962C112.142 20.6007 113.198 21.0929 113.936 21.9868C114.685 22.8962 114.985 24.095 114.759 25.2615L104.434 76.89C104.033 78.7347 102.469 80.0226 100.629 80.0226H43.2006L19.4901 8.63753C18.2085 4.9766 14.7388 2.51707 10.7652 2.51707H10.7613C7.39094 2.63332 3.97306 2.63215 3.13587 2.5752C2.30267 2.39426 1.40221 2.62676 0.756504 3.2727C-0.252478 4.28168 -0.252478 5.91691 0.756504 6.92589C1.55619 7.72558 1.82619 7.99558 10.8505 7.68292C12.5427 7.68292 14.0554 8.75261 14.5994 10.3051L38.8848 83.4211C39.2361 84.4765 40.2231 85.1894 41.3366 85.1894H100.629C104.921 85.1894 108.561 82.2274 109.492 77.9451L119.83 26.2597C120.352 23.5576 119.658 20.8023 117.924 18.6992Z" fill="#CD2122"/>
<path d="M99.4667 99.4008H52.446C50.8558 99.4008 49.3612 98.3053 48.8226 96.768L43.7847 81.7833C43.33 80.4307 41.8612 79.7009 40.5126 80.1582C39.16 80.6117 38.4328 82.0777 38.8874 83.4303L43.9356 98.4445C45.2184 102.107 48.6377 104.566 52.4458 104.566H99.4665C100.893 104.566 102.05 103.41 102.05 101.984C102.05 100.558 100.893 99.4008 99.4667 99.4008Z" fill="#CD2122"/>
<path d="M54.2543 99.3991C49.268 99.3991 45.2119 103.457 45.2119 108.442C45.2119 113.426 49.268 117.484 54.2543 117.484C59.2407 117.484 63.2967 113.426 63.2967 108.442C63.2967 103.457 59.2407 99.3991 54.2543 99.3991ZM54.2543 112.317C52.1178 112.317 50.379 110.578 50.379 108.442C50.379 106.305 52.1178 104.566 54.2543 104.566C56.3909 104.566 58.1297 106.305 58.1297 108.442C58.1297 110.578 56.3909 112.317 54.2543 112.317Z" fill="#CD2122"/>
<path d="M99.4667 99.3991C94.4818 99.3991 90.4243 103.457 90.4243 108.442C90.4243 113.426 94.4818 117.484 99.4667 117.484C104.452 117.484 108.509 113.426 108.509 108.442C108.509 103.457 104.452 99.3991 99.4667 99.3991ZM99.4667 112.317C97.3301 112.317 95.5913 110.578 95.5913 108.442C95.5913 106.305 97.3301 104.566 99.4667 104.566C101.603 104.566 103.342 106.305 103.342 108.442C103.342 110.578 101.603 112.317 99.4667 112.317Z" fill="#CD2122"/>
<g clip-path="url(#clip2)">
<path d="M80.773 49.6854C80.6764 49.3555 80.4284 49.0861 80.0989 48.9656C80.0324 48.9413 79.4933 48.7505 78.6559 48.628C82.2333 44.8215 81.0522 40.3742 80.773 39.5056C80.6764 39.1756 80.4284 38.9062 80.0989 38.7857C79.9453 38.7295 77.2677 37.7854 74.217 38.8471C74.3893 38.1404 74.49 37.3635 74.49 36.511C74.49 31.0568 70.3597 28.6596 69.5309 28.234C69.2293 28.0688 68.8632 28.0537 68.5452 28.2016C68.3401 28.2969 63.5217 30.6028 63.5217 36.511C63.5217 37.3653 63.6229 38.1438 63.7958 38.8516C60.7397 37.7827 58.0549 38.7294 57.9011 38.7857C57.5716 38.9062 57.3236 39.1756 57.227 39.5056C56.9478 40.3742 55.7667 44.8215 59.3441 48.628C58.5067 48.7505 57.9676 48.9413 57.9011 48.9656C57.5716 49.0861 57.3235 49.3556 57.2269 49.6855C56.9419 50.5722 55.7162 55.1882 59.573 59.045C61.8049 61.2769 64.2821 61.8094 66.1379 61.8094C66.825 61.8094 67.4256 61.7362 67.8984 61.6494V68.8061C67.8984 69.4101 68.3881 69.8998 68.9922 69.8998C69.5963 69.8998 70.0859 69.4101 70.0859 68.8061V61.6466C70.5609 61.7346 71.1674 61.8093 71.862 61.8093C73.7177 61.8093 76.1952 61.2766 78.4269 59.0449C82.2837 55.188 81.058 50.5721 80.773 49.6854ZM67.8984 58.2398C67.8741 58.7363 67.8045 59.1535 67.7379 59.4535C66.5688 59.7133 63.6436 60.022 61.1199 57.4981C58.6341 55.0126 58.8947 52.1359 59.1699 50.8807C59.905 50.7209 61.3394 50.5429 62.9276 51.0583C63.0321 51.0974 63.1364 51.1344 63.24 51.1688C64.0811 51.4878 64.9544 52.0084 65.782 52.8359C67.3591 54.413 67.8301 56.1466 67.8984 57.5101V58.2398ZM67.8984 48.0602C67.8741 48.5566 67.8045 48.9739 67.7379 49.2738C67.0135 49.4349 65.615 49.6137 64.0556 49.127C63.8976 49.0661 63.7404 49.0106 63.5844 48.9604C62.7686 48.6382 61.9239 48.1224 61.1198 47.3184C58.6341 44.8327 58.8947 41.9562 59.1699 40.7011C60.3379 40.4471 63.2712 40.1455 65.782 42.6563C65.798 42.6722 65.8124 42.6883 65.8281 42.7042C65.924 42.8118 66.0202 42.9147 66.1164 43.0136C67.4255 44.4914 67.8352 46.0692 67.8984 47.3304V48.0602V48.0602ZM69.0076 42.5724C68.6648 42.3525 68.1709 41.9902 67.6692 41.4664C67.618 41.4103 67.5663 41.3542 67.5131 41.2983C66.5993 40.2832 65.7091 38.726 65.7091 36.511C65.7091 32.9457 67.9906 31.0959 69.0003 30.4519C70.0816 31.1438 72.3024 32.9937 72.3024 36.511C72.3024 38.6012 71.5181 40.101 70.6658 41.1146C70.4886 41.292 70.3228 41.4712 70.1665 41.6512C69.7293 42.0764 69.3105 42.3795 69.0076 42.5724ZM70.0927 47.7057C70.0912 46.4216 70.4234 44.7224 71.7833 43.1266C71.9444 42.9665 72.1064 42.7942 72.267 42.609C74.7768 40.1403 77.6678 40.4419 78.8296 40.6989C79.1049 41.9529 79.3672 44.8313 76.88 47.3184C76.0774 48.1211 75.2343 48.6365 74.42 48.9589C74.2613 49.0099 74.1015 49.0662 73.9407 49.1282C72.3816 49.6142 70.984 49.4347 70.2625 49.2741C70.1815 48.9096 70.0958 48.3742 70.0926 47.7336C70.0926 47.7243 70.0927 47.715 70.0927 47.7057ZM76.88 57.4981C74.3558 60.0224 71.4306 59.7132 70.2642 59.4544C70.0099 58.2909 69.7025 55.3513 72.2179 52.8359C73.0226 52.0311 73.868 51.5152 74.6844 51.193C74.8401 51.1429 74.9969 51.0878 75.1545 51.027C76.7104 50.5413 78.1057 50.7185 78.8296 50.8785C79.1049 52.1326 79.3672 55.0111 76.88 57.4981Z" fill="#CD2122"/>
<path d="M74.8358 21.6093C72.9293 21.2051 70.9658 21 69 21C61.5209 21 54.4895 23.9124 49.201 29.201C43.9125 34.4895 41 41.5209 41 49C41 55.232 43.0967 61.3153 46.9167 66.2135C46.487 66.8783 46.2557 67.6527 46.2557 68.4632C46.2557 69.5733 46.688 70.617 47.473 71.4021C48.258 72.1871 49.3018 72.6194 50.4119 72.6194C51.5221 72.6194 52.5659 72.1871 53.3508 71.4021C54.1359 70.617 54.5682 69.5733 54.5682 68.4632C54.5682 67.353 54.1358 66.3094 53.3508 65.5243C52.5659 64.7392 51.5221 64.3068 50.4119 64.3068C49.7539 64.3068 49.1197 64.4598 48.5484 64.747C45.0865 60.253 43.1875 54.6942 43.1875 49C43.1875 34.7669 54.7669 23.1875 69 23.1875C70.8137 23.1875 72.6244 23.3765 74.382 23.7492C74.9733 23.8745 75.5535 23.497 75.6789 22.9062C75.8042 22.3152 75.4268 21.7347 74.8358 21.6093ZM49.0198 67.0709C49.4036 66.687 49.9077 66.4952 50.4119 66.4952C50.9162 66.4952 51.4203 66.6871 51.8041 67.0709C52.1759 67.4427 52.3807 67.9372 52.3807 68.4631C52.3807 68.9889 52.1759 69.4833 51.8041 69.8552C51.0365 70.623 49.7874 70.6228 49.0198 69.8552C48.6479 69.4834 48.4432 68.9889 48.4432 68.4631C48.4432 67.9372 48.6479 67.4428 49.0198 67.0709Z" fill="#CD2122"/>
<path d="M91.0832 31.7866C91.5129 31.1218 91.7442 30.3474 91.7442 29.537C91.7442 28.4268 91.3119 27.3831 90.5269 26.5981C89.7419 25.813 88.6982 25.3807 87.588 25.3807C86.4778 25.3807 85.4341 25.8131 84.6491 26.5981C83.8641 27.3831 83.4317 28.4268 83.4317 29.537C83.4317 30.6471 83.8641 31.6909 84.6491 32.4759C85.4341 33.261 86.4778 33.6932 87.588 33.6932C88.2461 33.6932 88.8803 33.5402 89.4516 33.253C92.9135 37.7471 94.8124 43.306 94.8124 49.0002C94.8124 63.2332 83.233 74.8127 68.9999 74.8127C67.4688 74.8127 65.9347 74.6777 64.4403 74.4114C63.846 74.3056 63.2775 74.7014 63.1717 75.2963C63.0657 75.891 63.4618 76.459 64.0565 76.565C65.6773 76.8537 67.3405 77.0002 68.9999 77.0002C76.479 77.0002 83.5104 74.0876 88.799 68.7992C94.0876 63.5108 96.9999 56.4792 96.9999 49.0002C96.9999 42.7682 94.9032 36.6849 91.0832 31.7866ZM88.9802 30.9291C88.6085 31.301 88.114 31.5057 87.5881 31.5057C87.0622 31.5057 86.5677 31.3011 86.196 30.9291C85.4283 30.1615 85.4283 28.9126 86.196 28.1449C86.5677 27.773 87.0622 27.5682 87.5881 27.5682C88.114 27.5682 88.6084 27.773 88.9802 28.1449C89.3521 28.5166 89.5569 29.0111 89.5569 29.537C89.5569 30.0629 89.3521 30.5572 88.9802 30.9291Z" fill="#CD2122"/>
<path d="M59.3897 72.9643L58.9767 73.9771L59.3867 72.9631C58.8263 72.7369 58.1891 73.0072 57.9627 73.5672C57.7363 74.1272 58.0068 74.7647 58.5668 74.9912L58.6006 75.0046C58.7295 75.0539 58.8623 75.0773 58.9929 75.0773C59.4335 75.0773 59.8499 74.8107 60.0165 74.3757C60.2327 73.8114 59.9539 73.1803 59.3897 72.9643Z" fill="#CD2122"/>
<path d="M79.4808 23.0282L79.4613 23.0204C78.9005 22.796 78.264 23.0689 78.0395 23.6297C77.8151 24.1906 78.088 24.827 78.6489 25.0514L78.6613 25.0564C78.7957 25.1107 78.9342 25.1363 79.0707 25.1363C79.5034 25.1363 79.9131 24.8778 80.0852 24.452C80.3115 23.8919 80.0409 23.2545 79.4808 23.0282Z" fill="#CD2122"/>
</g>
</g>
</g>
<defs>
<clipPath id="clip0">
<rect width="120" height="120" fill="white"/>
</clipPath>
<clipPath id="clip1">
<rect width="120" height="120" fill="white"/>
</clipPath>
<clipPath id="clip2">
<rect width="56" height="56" fill="white" transform="translate(41 21)"/>
</clipPath>
</defs>
</svg>
