<svg width="120" height="115" viewBox="0 0 120 115" fill="none" xmlns="http://www.w3.org/2000/svg">
<g clip-path="url(#clip0)">
<path d="M96.5948 27.09C97.463 27.5705 98.5415 27.5705 99.41 27.09L107.018 22.8802C107.887 22.3998 108.426 21.5047 108.426 20.5441C108.426 19.5832 107.887 18.6878 107.018 18.2077L99.41 13.9979C98.5418 13.5174 97.4632 13.5178 96.5948 13.9979C95.7265 14.4785 95.1872 15.3736 95.1872 16.3342V24.7537C95.1872 25.7143 95.7265 26.6097 96.5948 27.09ZM98.7003 17.4931L104.214 20.5441L98.7003 23.5953V17.4931Z" fill="#CD2122"/>
<path d="M113.365 40.0791H88.9636C86.3837 40.0791 84.285 42.0904 84.285 44.5628V67.948C84.285 70.4203 86.3837 72.4317 88.9636 72.4317H113.365C115.945 72.4317 118.044 70.4203 118.044 67.948V44.5628C118.044 42.0904 115.945 40.0791 113.365 40.0791ZM114.531 67.948C114.531 68.5637 114.008 69.0649 113.365 69.0649H88.9636C88.3211 69.0649 87.7982 68.5639 87.7982 67.948V44.5628C87.7982 43.9471 88.3209 43.4459 88.9636 43.4459H113.365C114.008 43.4459 114.531 43.9469 114.531 44.5628V67.948Z" fill="#CD2122"/>
<path d="M101.165 51.2623C96.8084 51.2623 93.2645 54.6587 93.2645 58.8333C93.2645 63.0083 96.8086 66.4045 101.165 66.4045C105.521 66.4045 109.065 63.0081 109.065 58.8333C109.065 54.6587 105.521 51.2623 101.165 51.2623V51.2623ZM101.165 63.0379C98.7458 63.0379 96.7777 61.1519 96.7777 58.8335C96.7777 56.5153 98.7458 54.6293 101.165 54.6293C103.584 54.6293 105.552 56.5153 105.552 58.8335C105.552 61.1516 103.584 63.0379 101.165 63.0379Z" fill="#CD2122"/>
<path d="M109.494 46.0483C108.523 46.0483 107.737 46.8018 107.737 47.7317V49.1947C107.737 50.1246 108.523 50.8781 109.494 50.8781C110.464 50.8781 111.25 50.1246 111.25 49.1947V47.7317C111.25 46.802 110.464 46.0483 109.494 46.0483Z" fill="#CD2122"/>
<path d="M99.0812 95.3754C98.9397 95.5109 98.7091 95.5114 98.5676 95.3754L97.6015 94.4495C96.9152 93.7923 95.8032 93.7923 95.1172 94.4495C94.4312 95.1071 94.4312 96.1728 95.1172 96.8303L96.0833 97.7561C97.5944 99.2043 100.054 99.2041 101.565 97.7561L106.591 92.94C108.102 91.4916 108.102 89.1349 106.59 87.6863L105.624 86.7606C104.938 86.1032 103.825 86.1032 103.14 86.7608C102.454 87.4185 102.454 88.4842 103.141 89.1414L104.106 90.0668C104.248 90.2026 104.248 90.4237 104.106 90.5593L99.0812 95.3754Z" fill="#CD2122"/>
<path d="M61.0071 27.2712C61.0069 27.2712 61.0069 27.2712 61.0071 27.2712C60.0368 27.2712 59.2503 28.0247 59.2503 28.9544V29.8315L49.0303 33.9053C48.9799 33.0188 48.2161 32.314 47.2788 32.314C47.2786 32.314 47.2786 32.314 47.2786 32.314C46.3085 32.314 45.522 33.0675 45.522 33.9971V35.3037L37.63 38.4496C25.2548 38.4485 30.9143 38.4489 17.8441 38.4478C17.8436 38.4478 17.8439 38.4478 17.8434 38.4478C14.9926 38.4478 12.6729 40.6708 12.6725 43.403V43.8443L10.6013 43.8441V43.737C10.6013 42.8071 9.8151 42.0534 8.845 42.0534C8.84476 42.0534 8.84476 42.0534 8.84476 42.0534C7.87466 42.0534 7.08818 42.8069 7.08818 43.7366V43.9862C3.08715 44.6968 0.000477555 48.0607 9.13302e-06 52.1708C-0.000459289 56.2776 3.08246 59.6447 7.0863 60.3566V60.606C7.0863 61.5359 7.87255 62.2896 8.84265 62.2896H8.84289C9.81299 62.2896 10.5995 61.5361 10.5995 60.6064V60.4991L12.6706 60.4994V60.9406C12.6704 62.2642 13.2081 63.5088 14.1848 64.445C15.1614 65.3812 16.4601 65.8968 17.8413 65.8968H18.3109L18.3106 71.3193C18.3106 72.249 19.0969 73.0027 20.0672 73.0027C21.0373 73.0027 21.8238 72.2492 21.8238 71.3193L21.824 65.897L30.3718 65.8977L30.3713 71.2192C30.3713 71.2973 30.3236 71.3692 30.25 71.4019L27.6971 72.5482C26.3949 73.1327 25.5534 74.4006 25.5529 75.7792L25.5522 83.0878C25.5522 83.7919 24.9576 84.3623 24.2219 84.3623H23.153C22.4178 84.3623 21.8226 83.7921 21.8226 83.0871L21.8231 78.8068C21.8231 77.8769 21.0369 77.1232 20.0668 77.1232C20.0665 77.1232 20.0665 77.1232 20.0665 77.1232C19.0964 77.1232 18.3099 77.8767 18.3099 78.8064L18.3095 83.0867C18.309 85.6522 20.4752 87.7286 23.1527 87.729H24.2221C26.8987 87.729 29.0654 85.6531 29.0654 83.088L29.0661 75.7799C29.0661 75.702 29.1136 75.6304 29.1874 75.5974L31.7408 74.4509C33.0428 73.8662 33.884 72.598 33.8845 71.2199L33.885 65.8981L37.6265 65.8984L45.5185 69.0456V70.3519C45.5185 71.2818 46.3047 72.0356 47.2748 72.0356H47.2751C48.2126 72.0356 48.9764 71.3312 49.0267 70.4449L59.2458 74.5202V75.397C59.2458 76.3269 60.0321 77.0806 61.0022 77.0806H61.0024C61.9725 77.0806 62.759 76.3271 62.759 75.3974L62.7592 73.3982C62.7592 73.398 62.7592 73.3978 62.7592 73.3975L62.7611 52.176L62.7632 28.9546C62.7635 28.0249 61.977 27.2712 61.0071 27.2712V27.2712ZM22.4981 41.815C23.3626 41.815 29.1249 41.8155 29.6966 41.8155L29.6964 44.21C29.6964 44.8977 29.1155 45.4548 28.3974 45.4548H28.3972C28.3972 45.4548 28.3972 45.4548 28.3969 45.4548L23.7968 45.4545C23.0789 45.4545 22.4976 44.8979 22.4976 44.2093L22.4981 41.815ZM3.51318 52.1711C3.51318 49.9523 5.02126 48.0981 7.08747 47.4558L7.08654 56.887C5.02033 56.2442 3.51271 54.39 3.51318 52.1711V52.1711ZM10.5997 57.1324L10.6006 47.2109H12.6715C12.6713 48.7248 12.6708 55.5758 12.6708 57.1324H10.5997ZM16.6691 62.0647C16.3561 61.7646 16.1838 61.3655 16.1838 60.9411C16.1842 56.5732 16.1849 47.7484 16.1854 43.4035C16.1854 42.9788 16.358 42.58 16.6712 42.2799C16.9843 41.9798 17.4005 41.8146 17.8432 41.8146H17.8434H18.9849L18.9847 44.2088C18.9842 46.7519 21.143 48.8209 23.7968 48.8213L28.3969 48.8216H28.3977C31.0574 48.8216 33.2098 46.7588 33.2098 44.2102L33.21 41.8157L36.2236 41.8159C36.2234 44.3229 36.2219 60.0677 36.2217 62.5313L17.8418 62.5298C17.3986 62.53 16.9822 62.3648 16.6691 62.0647V62.0647ZM39.7346 63.0925C39.7349 60.6044 39.7365 43.7633 39.7368 41.2562L45.5213 38.9504L45.5187 65.3994L39.7346 63.0925ZM49.0319 66.8002L49.0347 37.5498L59.2498 33.478L59.2482 52.1702L59.2465 70.8736L49.0319 66.8002Z" fill="#CD2122"/>
<path d="M76.8913 50.4878H69.8373C68.867 50.4878 68.0807 51.2413 68.0807 52.1712C68.0807 53.1011 68.867 53.8546 69.8373 53.8546H76.8913C77.8616 53.8546 78.6479 53.1011 78.6479 52.1712C78.6479 51.2413 77.8614 50.4878 76.8913 50.4878Z" fill="#CD2122"/>
<path d="M68.9636 37.9535L73.9514 33.1734C74.6374 32.5159 74.6374 31.45 73.9511 30.7928C73.2654 30.1356 72.1531 30.1354 71.4671 30.793L66.4793 35.5732C65.7933 36.2306 65.7933 37.2965 66.4795 37.9537C67.1653 38.6109 68.2774 38.6112 68.9636 37.9535Z" fill="#CD2122"/>
<path d="M68.8282 66.3355C68.1419 65.6783 67.0299 65.6783 66.3439 66.3355C65.6579 66.9932 65.6579 68.0589 66.3439 68.7163L71.3319 73.4964C72.0184 74.1539 73.1302 74.1536 73.8162 73.4964C74.5022 72.8388 74.5022 71.7731 73.8162 71.1157L68.8282 66.3355Z" fill="#CD2122"/>
<path d="M101.164 76.457C91.9014 76.457 84.3654 83.679 84.3654 92.5561C84.3654 95.0464 84.9723 97.5122 86.1258 99.7316L84.4254 105.813C84.2631 106.394 84.4362 107.014 84.8798 107.439C85.3238 107.864 85.9707 108.03 86.5766 107.875L92.5045 106.353C95.1153 107.862 98.0921 108.655 101.164 108.655C104.96 108.655 108.545 107.467 111.531 105.22C112.293 104.646 112.426 103.588 111.827 102.856C111.228 102.125 110.124 101.999 109.361 102.572C107 104.349 104.166 105.288 101.165 105.288C98.5188 105.288 95.9633 104.545 93.7742 103.137C93.3528 102.866 92.8305 102.783 92.3408 102.909L88.6065 103.868L89.697 99.9673C89.8148 99.546 89.7575 99.0973 89.5368 98.7157C88.4522 96.8398 87.8788 94.7097 87.8788 92.5561C87.8788 85.5357 93.8388 79.8238 101.165 79.8238C108.491 79.8238 114.451 85.5354 114.451 92.5561C114.451 94.408 114.042 96.1976 113.235 97.8749C112.829 98.7193 113.214 99.7193 114.096 100.108C114.976 100.497 116.02 100.128 116.426 99.2838C117.446 97.1614 117.964 94.8978 117.964 92.5559C117.963 83.6788 110.427 76.457 101.164 76.457V76.457Z" fill="#CD2122"/>
<path d="M114.786 6.34558H98.5326C97.5622 6.34558 96.776 7.09907 96.776 8.02898C96.776 8.95888 97.5622 9.71237 98.5326 9.71237H114.786C115.724 9.71237 116.487 10.4439 116.487 11.3428V29.7459C116.487 30.6448 115.724 31.3763 114.786 31.3763H87.5434C86.6051 31.3763 85.8418 30.6448 85.8418 29.7459V11.3426C85.8418 10.4436 86.6051 9.71214 87.5434 9.71214H91.5093C92.4796 9.71214 93.2659 8.95866 93.2659 8.02875C93.2659 7.09884 92.4796 6.34536 91.5093 6.34536H87.5434C84.6682 6.34536 82.3287 8.58696 82.3287 11.3426V29.7456C82.3287 32.501 84.668 34.7429 87.5434 34.7429H114.786C117.661 34.7429 120 32.5012 120 29.7456V11.3426C120 8.58719 117.661 6.34558 114.786 6.34558V6.34558Z" fill="#CD2122"/>
</g>
<defs>
<clipPath id="clip0">
<rect width="120" height="115" fill="white"/>
</clipPath>
</defs>
</svg>
