<svg width="120" height="120" viewBox="0 0 120 120" fill="none" xmlns="http://www.w3.org/2000/svg">
<path d="M60.0002 25.9998C41.2225 25.9998 26.0002 41.2221 26.0002 59.9998C26.0002 78.7774 41.2225 93.9998 60.0002 93.9998C78.7779 93.9998 94.0002 78.7774 94.0002 59.9998C93.9792 41.2308 78.7692 26.0207 60.0002 25.9998ZM45.2142 86.0698C45.8811 86.0247 46.4815 85.6495 46.8142 85.0698C48.4717 82.2036 52.1217 81.1968 55.0142 82.8078C55.633 83.165 56.3954 83.165 57.0142 82.8078C58.8694 81.7314 61.159 81.7314 63.0142 82.8078C63.633 83.165 64.3954 83.165 65.0142 82.8078C67.907 81.1991 71.5553 82.2055 73.2142 85.0698C73.5469 85.6495 74.1472 86.0247 74.8142 86.0698C65.6532 91.3097 54.4031 91.3097 45.2422 86.0698H45.2142ZM56.0002 51.9998C51.5819 51.9998 48.0002 48.418 48.0002 43.9998H50.0002C54.4185 43.9998 58.0002 47.5815 58.0002 51.9998H56.0002ZM56.0002 69.9998C51.5819 69.9998 48.0002 66.418 48.0002 61.9998H50.0002C54.4185 61.9998 58.0002 65.5815 58.0002 69.9998H56.0002ZM79.5842 82.6778C78.4411 82.2343 77.2263 82.0045 76.0002 81.9998H75.9582C73.1978 78.2851 68.2342 76.9751 64.0002 78.8438C63.3578 78.5638 62.6873 78.3532 62.0002 78.2158V73.9998H64.0002C70.6249 73.9931 75.9936 68.6244 76.0002 61.9998C76.0002 59.7906 74.2093 57.9998 72.0002 57.9998H70.0002C67.0437 58.0003 64.1928 59.0986 62.0002 61.0818V55.9998H64.0002C70.6249 55.9931 75.9936 50.6244 76.0002 43.9998C76.0002 41.7906 74.2093 39.9998 72.0002 39.9998H70.0002C67.0437 40.0003 64.1928 41.0986 62.0002 43.0818V35.9998C62.0002 34.8952 61.1047 33.9998 60.0002 33.9998C58.8956 33.9998 58.0002 34.8952 58.0002 35.9998V43.0818C55.8075 41.0986 52.9566 40.0003 50.0002 39.9998H48.0002C45.791 39.9998 44.0002 41.7906 44.0002 43.9998C44.0068 50.6244 49.3755 55.9931 56.0002 55.9998H58.0002V61.0798C55.8072 59.0974 52.9563 57.9998 50.0002 57.9998H48.0002C45.791 57.9998 44.0002 59.7906 44.0002 61.9998C44.0068 68.6244 49.3755 73.9931 56.0002 73.9998H58.0002V78.2178C57.313 78.3552 56.6426 78.5658 56.0002 78.8458C51.7666 76.9767 46.8032 78.2858 44.0422 81.9998H44.0002C42.7742 82.0039 41.5594 82.233 40.4162 82.6758C30.9169 74.4898 27.5113 61.2593 31.8774 49.5042C36.2436 37.7491 47.4604 29.9498 60.0002 29.9498C72.5399 29.9498 83.7567 37.7491 88.1229 49.5042C92.4891 61.2593 89.0834 74.4898 79.5842 82.6758V82.6778ZM62.0002 69.9998C62.0002 65.5815 65.5819 61.9998 70.0002 61.9998H72.0002C72.0002 66.418 68.4185 69.9998 64.0002 69.9998H62.0002ZM62.0002 51.9998C62.0002 47.5815 65.5819 43.9998 70.0002 43.9998H72.0002C72.0002 48.418 68.4185 51.9998 64.0002 51.9998H62.0002Z" fill="#CD2122"/>
<path d="M94.112 104.414C73.797 120.016 45.4855 119.846 25.36 104H30C31.1045 104 32 103.105 32 102C32 100.895 31.1045 100 30 100H20C18.8954 100 18 100.895 18 102V112C18 113.105 18.8954 114 20 114C21.1045 114 22 113.105 22 112V106.416C43.5595 124.08 74.4467 124.565 96.55 107.586C97.4259 106.913 97.5902 105.657 96.917 104.781C96.2437 103.905 94.9879 103.741 94.112 104.414V104.414Z" fill="#CD2122"/>
<path d="M107.584 23.4499C107.161 22.8484 106.443 22.5272 105.713 22.6134C104.983 22.6996 104.359 23.1793 104.088 23.8627C103.817 24.5461 103.943 25.323 104.416 25.8859C120.018 46.2013 119.846 74.5128 104 94.6379V89.9999C104 88.8953 103.105 87.9999 102 87.9999C100.895 87.9999 100 88.8953 100 89.9999V99.9999C100 101.104 100.895 102 102 102H112C113.105 102 114 101.104 114 99.9999C114 98.8953 113.105 97.9999 112 97.9999H106.416C124.081 76.4404 124.565 45.5522 107.584 23.4499V23.4499Z" fill="#CD2122"/>
<path d="M20.0001 30V20C20.0001 18.8954 19.1047 18 18.0001 18H8.00011C6.89554 18 6.00011 18.8954 6.00011 20C6.00011 21.1045 6.89554 22 8.00011 22H13.5841C-4.08122 43.5595 -4.56515 74.4476 12.4161 96.55C12.8387 97.1515 13.5572 97.4727 14.2872 97.3865C15.0172 97.3002 15.6411 96.8205 15.9119 96.1371C16.1828 95.4537 16.0569 94.6769 15.5841 94.114C-0.0174239 73.7986 0.153882 45.4871 16.0001 25.362V30C16.0001 31.1045 16.8955 32 18.0001 32C19.1047 32 20.0001 31.1045 20.0001 30V30Z" fill="#CD2122"/>
<path d="M102 17.9999V7.99987C102 6.8953 101.105 5.99987 100 5.99987C98.8954 5.99987 98 6.8953 98 7.99987V13.5839C76.4404 -4.08059 45.5533 -4.56534 23.45 12.4139C22.8834 12.8494 22.5921 13.5541 22.686 14.2626C22.7798 14.971 23.2445 15.5756 23.905 15.8486C24.5655 16.1215 25.3214 16.0214 25.888 15.5859C46.2029 -0.0162516 74.5145 0.15423 94.64 15.9999H90C88.8954 15.9999 88 16.8953 88 17.9999C88 19.1044 88.8954 19.9999 90 19.9999H100C100.53 19.9999 101.039 19.7892 101.414 19.4141C101.789 19.039 102 18.5303 102 17.9999Z" fill="#CD2122"/>
</svg>
