<svg width="120" height="113" viewBox="0 0 120 113" fill="none" xmlns="http://www.w3.org/2000/svg">
<path d="M118 81.202H117L112 74.6001V63.3771C112 63.0186 111.902 62.6669 111.716 62.3594C111.53 62.0518 111.263 61.8001 110.944 61.6309C110.624 61.4618 110.265 61.3816 109.903 61.3989C109.542 61.4163 109.192 61.5305 108.891 61.7293L96.8905 69.6515C96.6166 69.8323 96.392 70.0774 96.2366 70.3648C96.0813 70.6523 96 70.9732 96 71.2993V76.9156L92.9607 81.202H78V77.2409C78 76.9808 77.9483 76.7232 77.8478 76.4829C77.7473 76.2427 77.6 76.0243 77.4143 75.8404L72 70.4788V63.3771C72 63.1252 71.9515 62.8755 71.857 62.6416L68.3887 54.0555L81.3015 43.095C81.6579 42.7924 81.8956 42.3753 81.973 41.9168L83.821 30.9357L92.554 25.747H100C100.42 25.747 100.829 25.6162 101.169 25.3732C101.51 25.1301 101.765 24.7871 101.897 24.3928L103.897 18.4512C103.998 18.1534 104.025 17.8364 103.977 17.5261C103.929 17.2159 103.808 16.9213 103.623 16.6667C103.437 16.4121 103.194 16.2048 102.911 16.0618C102.629 15.9188 102.317 15.8443 102 15.8443H95.737L97.664 12.9819C97.8114 12.7656 97.9141 12.5225 97.9663 12.2667C98.0185 12.0109 98.0191 11.7474 97.9681 11.4913C97.9172 11.2353 97.8156 10.9917 97.6693 10.7747C97.5229 10.5576 97.3347 10.3714 97.1154 10.2266C96.8962 10.0818 96.6502 9.98138 96.3916 9.93106C96.133 9.88074 95.8669 9.88152 95.6086 9.93337C95.3503 9.98521 95.1049 10.0871 94.8865 10.2332C94.6681 10.3792 94.481 10.5666 94.336 10.7845L90.9297 15.8443H90C89.6519 15.8442 89.3099 15.9341 89.0078 16.1052L75.0078 24.0274C74.5805 24.2692 74.2583 24.6584 74.1025 25.1206L70.3195 36.3602L60.386 42.9182L52 32.9512V28.9505L58.8945 25.5368C59.172 25.3995 59.4136 25.2003 59.6 24.9547L71 9.90268H76C76.5304 9.90268 77.0391 9.69401 77.4142 9.32259C77.7893 8.95117 78 8.44741 78 7.92214V1.98054C78 1.45526 77.7893 0.951508 77.4142 0.580086C77.0391 0.208663 76.5304 1.94123e-09 76 1.94123e-09H66C65.7149 -1.24966e-05 65.4331 0.0603291 65.1735 0.176979C64.9139 0.293629 64.6825 0.463892 64.4948 0.676352L56.5698 9.64595L54 7.10195V3.96107C54 3.4358 53.7893 2.93204 53.4142 2.56062C53.0391 2.1892 52.5304 1.98054 52 1.98054C51.4696 1.98054 50.9609 2.1892 50.5858 2.56062C50.2107 2.93204 50 3.4358 50 3.96107V7.92214C50 8.18223 50.0517 8.43978 50.1522 8.68008C50.2527 8.92037 50.4 9.13871 50.5858 9.32263L53.9295 12.6336L50.8112 16.1627L42.234 19.5603L38 16.765V11.8832C38 11.3579 37.7893 10.8542 37.4142 10.4828C37.0391 10.1113 36.5304 9.90268 36 9.90268C35.4696 9.90268 34.9609 10.1113 34.5858 10.4828C34.2107 10.8542 34 11.3579 34 11.8832V17.8248C34 18.1508 34.0813 18.4718 34.2366 18.7593C34.392 19.0467 34.6166 19.2918 34.8905 19.4726L40 22.8457V35.6496C40 36.0782 40.1404 36.4951 40.4 36.838L44 41.5912H38.6055L33.1095 37.9629C32.891 37.817 32.6456 37.7152 32.3872 37.6635C32.1289 37.6119 31.8628 37.6112 31.6043 37.6617C31.3457 37.7122 31.0998 37.8128 30.8806 37.9577C30.6614 38.1026 30.4733 38.289 30.3271 38.5061C30.1809 38.7233 30.0795 38.9669 30.0287 39.223C29.9778 39.479 29.9786 39.7425 30.031 39.9983C30.0833 40.2541 30.1862 40.4971 30.3337 40.7134C30.4812 40.9296 30.6705 41.1149 30.8905 41.2585L35.5975 44.366L31.9323 47.0892L27.1095 43.9055C26.891 43.7596 26.6456 43.6578 26.3872 43.6061C26.1289 43.5545 25.8628 43.5538 25.6043 43.6043C25.3457 43.6548 25.0998 43.7554 24.8806 43.9003C24.6614 44.0452 24.4733 44.2316 24.3271 44.4487C24.1809 44.6659 24.0795 44.9095 24.0287 45.1656C23.9778 45.4216 23.9786 45.6851 24.031 45.9409C24.0833 46.1967 24.1862 46.4397 24.3337 46.656C24.4812 46.8722 24.6705 47.0575 24.8905 47.2011L30.8905 51.1622C31.2348 51.3895 31.6418 51.5055 32.0554 51.4941C32.4691 51.4828 32.869 51.3447 33.2 51.0988L40.6665 45.5523H47L52.0925 52.2762L53.925 64.9782L44.8232 81.202H2C1.46957 81.202 0.960859 81.4106 0.585786 81.782C0.210714 82.1535 0 82.6572 0 83.1825V110.91C0 111.435 0.210714 111.939 0.585786 112.31C0.960859 112.682 1.46957 112.891 2 112.891H118C118.53 112.891 119.039 112.682 119.414 112.31C119.789 111.939 120 111.435 120 110.91V83.1825C120 82.6572 119.789 82.1535 119.414 81.782C119.039 81.4106 118.53 81.202 118 81.202ZM108.4 76.4487L112 81.202H109.07L106 76.6413V68.3973L108 67.077V75.2603C108 75.6889 108.14 76.1058 108.4 76.4487V76.4487ZM99.6367 78.6797C99.8732 78.3462 100 77.9485 100 77.5409V72.3591L102 71.0388V77.2409C102 77.6319 102.117 78.0142 102.336 78.3396L104.263 81.202H97.8483L99.6367 78.6797ZM57.7482 66.3195C57.9603 65.9417 58.0417 65.5056 57.98 65.0777L55.98 51.2139C55.9323 50.8844 55.8016 50.572 55.6 50.3056L44 34.9894V23.127L52.7427 19.6637C53.0359 19.5475 53.2972 19.3643 53.5052 19.129L66.9075 3.96107H74V5.94161H70C69.6895 5.94161 69.3833 6.01319 69.1056 6.1507C68.8279 6.2882 68.5863 6.48784 68.4 6.73382L56.6833 22.204L49.1055 25.9562C48.7733 26.1206 48.4939 26.3735 48.2987 26.6863C48.1034 26.9992 48 27.3597 48 27.7275V33.6691C48 34.1325 48.164 34.5812 48.4635 34.9371L58.4635 46.8204C58.7795 47.1958 59.2245 47.4423 59.713 47.5124C60.2015 47.5825 60.6989 47.4713 61.1095 47.2001L73.1095 39.278C73.4795 39.0337 73.7568 38.6743 73.8975 38.2565L77.6557 27.0912L90.5307 19.8054H99.225L98.5585 21.7859H92C91.6375 21.7859 91.2818 21.8834 90.971 22.0681L80.971 28.0097C80.7227 28.1572 80.5097 28.3564 80.3467 28.5934C80.1837 28.8304 80.0746 29.0996 80.027 29.3825L78.1468 40.5557L64.6985 51.9707C64.3814 52.2398 64.1574 52.6005 64.0577 53.002C63.9581 53.4036 63.9879 53.826 64.143 54.21L68 63.7586V71.2993C68 71.5594 68.0517 71.8169 68.1522 72.0572C68.2527 72.2975 68.4 72.5158 68.5857 72.6998L74 78.0613V81.202H67.737L69.664 78.3396C69.9549 77.9025 70.0592 77.3692 69.9542 76.8562C69.8492 76.3432 69.5434 75.8922 69.1036 75.6018C68.6638 75.3115 68.1258 75.2053 67.6072 75.3065C67.0886 75.4078 66.6316 75.7082 66.336 76.1422L62.9297 81.202H59.5325L63.715 74.2988C63.9014 73.9909 63.9999 73.6388 64 73.2798V69.3187C64 68.7935 63.7893 68.2897 63.4142 67.9183C63.0391 67.5469 62.5304 67.3382 62 67.3382C61.4696 67.3382 60.9609 67.5469 60.5858 67.9183C60.2107 68.2897 60 68.7935 60 69.3187V72.7312L54.8675 81.202H49.4L57.7482 66.3195ZM116 108.929H4V85.163H14V90.505L10.336 95.9475C10.1169 96.2729 10 96.6552 10 97.0462V101.007C10 101.533 10.2107 102.036 10.5858 102.408C10.9609 102.779 11.4696 102.988 12 102.988C12.5304 102.988 13.0391 102.779 13.4142 102.408C13.7893 102.036 14 101.533 14 101.007V97.6458L16.3107 94.2133L20 97.8664V102.988C20 103.513 20.2107 104.017 20.5858 104.388C20.9609 104.76 21.4696 104.968 22 104.968C22.5304 104.968 23.0391 104.76 23.4142 104.388C23.7893 104.017 24 103.513 24 102.988V97.0462C24 96.7861 23.9483 96.5286 23.8478 96.2883C23.7473 96.048 23.6 95.8297 23.4142 95.6457L18 90.2844V85.163H40V88.3039L32.5858 95.6457C32.2107 96.0172 31.9999 96.5209 31.9999 97.0462C31.9999 97.5715 32.2107 98.0753 32.5858 98.4467C32.9608 98.8182 33.4696 99.0268 34 99.0268C34.5304 99.0268 35.0392 98.8182 35.4142 98.4467L38.8893 95.0055L42 99.6264V102.988C42 103.513 42.2107 104.017 42.5858 104.388C42.9609 104.76 43.4696 104.968 44 104.968C44.5304 104.968 45.0391 104.76 45.4142 104.388C45.7893 104.017 46 103.513 46 102.988V99.0268C46 98.6357 45.8831 98.2534 45.664 97.9281L41.7735 92.1494L43.4142 90.5246C43.6 90.3407 43.7473 90.1223 43.8478 89.882C43.9483 89.6417 44 89.3842 44 89.1241V85.163H60V88.0643L54.8905 91.4374C54.6166 91.6182 54.392 91.8633 54.2366 92.1507C54.0813 92.4382 54 92.7591 54 93.0852V101.007C54 101.533 54.2107 102.036 54.5858 102.408C54.9609 102.779 55.4696 102.988 56 102.988C56.5304 102.988 57.0391 102.779 57.4142 102.408C57.7893 102.036 58 101.533 58 101.007V97.0462L62 100.017V102.988C62 103.513 62.2107 104.017 62.5858 104.388C62.9609 104.76 63.4696 104.968 64 104.968C64.5304 104.968 65.0391 104.76 65.4142 104.388C65.7893 104.017 66 103.513 66 102.988V99.0268C66 98.7193 65.9277 98.4161 65.7889 98.141C65.65 97.866 65.4484 97.6268 65.2 97.4423L59.4613 93.1802L63.1095 90.7719C63.3834 90.591 63.608 90.346 63.7634 90.0586C63.9187 89.7711 64 89.4501 64 89.1241V85.163H76V90.2842L72.5857 93.6652C72.2107 94.0366 71.9999 94.5404 71.9999 95.0657C71.9999 95.591 72.2107 96.0948 72.5857 96.4662C72.9608 96.8376 73.4696 97.0463 74 97.0463C74.5304 97.0463 75.0392 96.8376 75.4143 96.4662L78 93.9056L82 97.8667V102.988C82 103.513 82.2107 104.017 82.5858 104.388C82.9609 104.76 83.4696 104.968 84 104.968C84.5304 104.968 85.0391 104.76 85.4142 104.388C85.7893 104.017 86 103.513 86 102.988V97.0462C86 96.7861 85.9483 96.5286 85.8478 96.2883C85.7473 96.048 85.6 95.8297 85.4143 95.6457L80 90.2844V85.163H102V88.3039L94.5857 95.6457C94.2107 96.0172 93.9999 96.5209 93.9999 97.0462C93.9999 97.5715 94.2107 98.0753 94.5857 98.4467C94.9608 98.8182 95.4696 99.0268 96 99.0268C96.5304 99.0268 97.0392 98.8182 97.4143 98.4467L100.889 95.0055L104 99.6264V102.988C104 103.513 104.211 104.017 104.586 104.388C104.961 104.76 105.47 104.968 106 104.968C106.53 104.968 107.039 104.76 107.414 104.388C107.789 104.017 108 103.513 108 102.988V99.0268C108 98.6357 107.883 98.2534 107.664 97.9281L103.773 92.1494L105.414 90.5246C105.6 90.3407 105.747 90.1223 105.848 89.882C105.948 89.6417 106 89.3842 106 89.1241V85.163H116V108.929Z" fill="#CD2122"/>
</svg>
