<svg width="120" height="84" viewBox="0 0 120 84" fill="none" xmlns="http://www.w3.org/2000/svg">
<path d="M93.2231 8H55.5372V4C55.5372 3.46957 55.3282 2.96088 54.9562 2.58582C54.5842 2.21075 54.0798 2.00003 53.5537 2H45.6198C43.9966 1.99867 42.4126 2.50232 41.0837 3.44225C40.602 2.4136 39.8406 1.544 38.8879 0.934624C37.9353 0.325246 36.8306 0.00113607 35.7025 0H19.8347C18.7066 0.00113607 17.6019 0.325246 16.6493 0.934624C15.6966 1.544 14.9352 2.4136 14.4535 3.44225C13.1246 2.50232 11.5405 1.99867 9.91736 2H1.98347C1.45743 2.00003 0.952941 2.21075 0.580973 2.58582C0.209006 2.96088 2.56426e-05 3.46957 0 4V8C0.0024063 10.121 0.839068 12.1544 2.32644 13.6542C3.81381 15.1539 5.83043 15.9976 7.93388 16H14.436C15.0343 19.8788 16.1145 23.6662 17.651 27.2729C18.5508 29.3942 20.0844 31.1795 22.0382 32.3801C21.8922 32.9075 21.8182 33.4525 21.8182 34C21.8177 34.8438 21.9949 35.678 22.3379 36.4476C23.2796 50.8045 25.4922 65.0477 28.9492 79.0073L29.8114 82.4851C29.9186 82.9178 30.1663 83.302 30.5149 83.5765C30.8635 83.851 31.2932 84 31.7355 84H39.6694C40.1955 84 40.7 83.7893 41.0719 83.4142C41.4439 83.0391 41.6529 82.5304 41.6529 82V60H49.5868V82C49.5868 82.5304 49.7958 83.0391 50.1677 83.4142C50.5397 83.7893 51.0442 84 51.5702 84H59.5041C59.9658 84 60.413 83.8376 60.7686 83.5409C61.1243 83.2441 61.3661 82.8315 61.4525 82.3743L65.6791 60H71.6097C71.9265 61.5721 72.614 63.0443 73.6141 64.292C74.6141 65.5397 75.8974 66.5263 77.3554 67.1685V72C77.3554 72.5304 77.5644 73.0391 77.9363 73.4142C78.3083 73.7893 78.8128 74 79.3388 74H84.0119L85.3135 82.312C85.3872 82.7825 85.6251 83.2111 85.9842 83.5205C86.3434 83.8299 86.8003 84 87.2727 84H95.2066C95.6925 84 96.1616 83.8202 96.5247 83.4946C96.8878 83.169 97.1198 82.7203 97.1765 82.2336L98.1677 73.7389C98.4729 73.5647 98.7269 73.312 98.9036 73.0065C99.0804 72.701 99.1735 72.3537 99.1736 72V67.166C99.6929 66.9361 100.192 66.6617 100.665 66.3459L103.165 82.312C103.238 82.7825 103.476 83.2111 103.835 83.5205C104.195 83.8299 104.652 84 105.124 84H113.058C113.544 84 114.013 83.8202 114.376 83.4946C114.739 83.169 114.971 82.7203 115.028 82.2336L117.372 62.1377C118.46 52.7985 119.006 43.4033 119.008 34C119.001 27.1068 116.281 20.4981 111.447 15.6238C106.613 10.7496 100.059 8.0078 93.2231 8V8ZM54.4698 12H83.3058V35C83.3058 36.8565 82.5744 38.637 81.2725 39.9497C79.9706 41.2625 78.2048 42 76.3636 42C74.5225 42 72.7567 41.2625 71.4548 39.9497C70.1529 38.637 69.4215 36.8565 69.4215 35V26C69.4215 24.4087 68.7946 22.8826 67.6786 21.7574C66.5627 20.6321 65.0492 20 63.4711 20C61.8929 20 60.3794 20.6321 59.2635 21.7574C58.1476 22.8826 57.5207 24.4087 57.5207 26C57.5207 27.0609 57.1027 28.0783 56.3588 28.8284C55.6148 29.5786 54.6058 30 53.5537 30C52.5016 30 51.4926 29.5786 50.7487 28.8284C50.0047 28.0783 49.5868 27.0609 49.5868 26V15.7468C50.606 15.4789 51.5623 15.0098 52.4005 14.3666C53.2387 13.7235 53.942 12.9191 54.4698 12V12ZM45.6198 6H51.5702V8C51.569 9.06049 51.1507 10.0772 50.407 10.8271C49.6633 11.577 48.655 11.9988 47.6033 12H41.5412C41.5861 11.3353 41.6197 10.6689 41.6368 10H41.6529C41.6541 8.93951 42.0724 7.9228 42.8161 7.17291C43.5598 6.42303 44.5681 6.00121 45.6198 6V6ZM7.93388 12C6.88215 11.9988 5.87385 11.577 5.13016 10.8271C4.38648 10.0772 3.96814 9.06049 3.96694 8V6H9.91736C10.9691 6.00121 11.9774 6.42303 12.7211 7.17291C13.4648 7.9228 13.8831 8.93951 13.8843 10H13.9004C13.9175 10.6689 13.9511 11.3353 13.996 12H7.93388ZM17.8512 8.76855V6C17.8518 5.46975 18.061 4.9614 18.4328 4.58646C18.8047 4.21151 19.3088 4.00061 19.8347 4H35.7025C36.2283 4.00061 36.7325 4.21151 37.1043 4.58646C37.4762 4.9614 37.6853 5.46975 37.6859 6V8.76855C37.6926 14.5892 36.5199 20.3499 34.2398 25.6973C33.6971 26.9743 32.7946 28.0627 31.6443 28.8275C30.494 29.5923 29.1465 30 27.7686 30C26.3907 30 25.0431 29.5923 23.8929 28.8275C22.7426 28.0627 21.8401 26.9743 21.2974 25.6973C19.0173 20.3499 17.8446 14.5892 17.8512 8.76855V8.76855ZM27.7686 34C28.4294 33.9998 29.0888 33.9399 29.739 33.8209C29.7443 33.8805 29.7521 33.9396 29.7521 34C29.7521 34.5304 29.5431 35.0391 29.1711 35.4142C28.7991 35.7893 28.2946 36 27.7686 36C27.2425 36 26.738 35.7893 26.3661 35.4142C25.9941 35.0391 25.7851 34.5304 25.7851 34C25.7851 33.9396 25.7886 33.8796 25.7938 33.8201C26.4454 33.9397 27.1063 33.9999 27.7686 34ZM88.9676 80L87.2727 69.1759V68H89.2562V72C89.2562 72.5304 89.4652 73.0391 89.8372 73.4142C90.2091 73.7893 90.7136 74 91.2397 74H94.1428L93.4427 80H88.9676ZM96.6959 63.8105C96.2698 63.9212 95.8922 64.1715 95.6226 64.5221C95.353 64.8728 95.2067 65.3039 95.2066 65.7476V70H93.2231V66C93.2231 65.4696 93.0141 64.9609 92.6422 64.5858C92.2702 64.2107 91.7657 64 91.2397 64H85.2893C84.7632 64 84.2587 64.2107 83.8868 64.5858C83.5148 64.9609 83.3058 65.4696 83.3058 66V70H81.3223V65.7476C81.3223 65.3039 81.176 64.8727 80.9064 64.5221C80.6368 64.1714 80.2592 63.9211 79.833 63.8106C78.8887 63.5653 78.0188 63.0893 77.3001 62.4248C76.5814 61.7602 76.036 60.9274 75.7121 60H79.3388C83.2024 59.995 86.9319 58.5709 89.8297 55.9942C92.7275 53.4175 94.5952 49.8646 95.0834 46H97.4787L99.9292 61.6497C99.1201 62.7129 97.9822 63.4734 96.6959 63.8105V63.8105ZM113.433 61.6704L111.294 80H106.819L101.133 43.688C101.059 43.2175 100.821 42.7889 100.462 42.4795C100.103 42.1701 99.646 42 99.1736 42H93.2231C92.6971 42 92.1926 42.2107 91.8206 42.5858C91.4487 42.9609 91.2397 43.4696 91.2397 44C91.2361 47.1815 89.9811 50.2317 87.7501 52.4813C85.519 54.731 82.494 55.9964 79.3388 56H66.4347L67.8852 48.321L63.9885 47.5725L57.8628 80H53.5537V58C53.5537 57.4696 53.3447 56.9609 52.9727 56.5858C52.6008 56.2107 52.0963 56 51.5702 56H39.6694C39.1434 56 38.6389 56.2107 38.2669 56.5858C37.895 56.9609 37.686 57.4696 37.6859 58V80H33.2842L32.7975 78.0371C29.696 65.509 27.6128 52.7468 26.5686 39.8773C27.5684 40.0861 28.6047 40.0317 29.5775 39.7194C30.5504 39.4071 31.4271 38.8474 32.1232 38.0943C32.8193 37.3412 33.3112 36.42 33.5517 35.4194C33.7922 34.4189 33.7731 33.3728 33.4963 32.3819C35.4513 31.1812 36.986 29.3952 37.8862 27.2729C39.4227 23.6662 40.5029 19.8788 41.1012 16H45.6198V26C45.6198 28.1217 46.4557 30.1566 47.9436 31.6569C49.4315 33.1571 51.4495 34 53.5537 34C55.6579 34 57.6759 33.1571 59.1638 31.6569C60.6517 30.1566 61.4876 28.1217 61.4876 26C61.4876 25.4696 61.6966 24.9609 62.0685 24.5858C62.4405 24.2107 62.945 24 63.4711 24C63.9971 24 64.5016 24.2107 64.8736 24.5858C65.2456 24.9609 65.4545 25.4696 65.4545 26V35C65.4545 37.9174 66.6039 40.7153 68.6497 42.7782C70.6956 44.8411 73.4704 46 76.3636 46C79.2569 46 82.0317 44.8411 84.0775 42.7782C86.1234 40.7153 87.2727 37.9174 87.2727 35V12H93.2231C98.2739 11.9951 103.168 13.7654 107.065 17.0064C106.836 19.9621 105.565 22.7374 103.481 24.8284L102.319 26H99.1736C97.0701 26.0024 95.0535 26.8461 93.5661 28.3458C92.0787 29.8456 91.2421 31.879 91.2397 34V38C91.2397 38.5304 91.4487 39.0391 91.8206 39.4142C92.1926 39.7893 92.6971 40 93.2231 40H97.1901C99.2935 39.9976 101.31 39.1539 102.798 37.6542C104.285 36.1544 105.122 34.121 105.124 32V28.8286L106.286 27.657C108.258 25.6759 109.692 23.2175 110.452 20.5173C113.431 24.3692 115.046 29.1153 115.041 34C115.039 43.2472 114.502 52.4863 113.433 61.6704V61.6704ZM101.157 30V32C101.156 33.0605 100.737 34.0772 99.9938 34.8271C99.2501 35.577 98.2418 35.9988 97.1901 36H95.2066V34C95.2078 32.9395 95.6261 31.9228 96.3698 31.1729C97.1135 30.423 98.1218 30.0012 99.1736 30H101.157Z" fill="#CD2122"/>
<path d="M25.7852 8.00002H21.8183V12H25.7852V8.00002Z" fill="#CD2122"/>
<path d="M33.7191 8.00002H29.7521V12H33.7191V8.00002Z" fill="#CD2122"/>
</svg>
