<svg width="120" height="120" viewBox="0 0 120 120" fill="none" xmlns="http://www.w3.org/2000/svg">
<path d="M91.6406 0H9.60938C8.63859 0 7.85156 0.786797 7.85156 1.75781V104.961C7.85156 105.932 8.63859 106.719 9.60938 106.719C10.5802 106.719 11.3672 105.932 11.3672 104.961V15.2344H14.9414C15.9122 15.2344 16.6992 14.4476 16.6992 13.4766C16.6992 12.5055 15.9122 11.7188 14.9414 11.7188H11.3672V3.51563H89.8828V11.7188H22.4414C21.4706 11.7188 20.6836 12.5055 20.6836 13.4766C20.6836 14.4476 21.4706 15.2344 22.4414 15.2344H89.8828V16.8359C89.8828 17.8069 90.6698 18.5937 91.6406 18.5937C92.6114 18.5937 93.3984 17.8069 93.3984 16.8359V1.75781C93.3984 0.786797 92.6114 0 91.6406 0Z" fill="#CD2122"/>
<path d="M36.2416 38.9062H22.1791C21.2083 38.9062 20.4213 39.693 20.4213 40.6641V60.3516C20.4213 61.3226 21.2083 62.1094 22.1791 62.1094H36.2416C37.2124 62.1094 37.9994 61.3226 37.9994 60.3516V40.6641C37.9994 39.693 37.2124 38.9062 36.2416 38.9062ZM34.4838 58.5938H23.9369V42.4219H34.4838V58.5938Z" fill="#CD2122"/>
<path d="M58.1002 28.8103H44.0377C43.0669 28.8103 42.2799 29.5971 42.2799 30.5681V60.3515C42.2799 61.3226 43.0669 62.1094 44.0377 62.1094H58.1002C59.071 62.1094 59.858 61.3226 59.858 60.3515V30.5681C59.858 29.5971 59.071 28.8103 58.1002 28.8103ZM56.3424 58.5937H45.7955V32.3259H56.3424V58.5937Z" fill="#CD2122"/>
<path d="M109.451 107.109H108.545V101.123C109.635 100.777 110.426 99.7558 110.426 98.553V91.0563C110.426 90.167 109.992 89.3793 109.326 88.8878V81.6813C109.326 80.1942 108.116 78.9843 106.629 78.9843H97.7367C104.987 75.1296 109.935 67.4969 109.935 58.7289C109.935 48.3044 102.941 39.4835 93.3984 36.7108V24.2772C93.3984 23.3062 92.6114 22.5194 91.6406 22.5194C90.6698 22.5194 89.8828 23.3062 89.8828 24.2772V35.9838C88.9418 35.8657 87.9832 35.8043 87.0105 35.8043C85.0826 35.8043 83.2097 36.0447 81.4195 36.4952V23.2242C81.4195 22.2532 80.6325 21.4664 79.6617 21.4664H65.5992C64.6284 21.4664 63.8414 22.2532 63.8414 23.2242V60.3515C63.8414 60.7809 63.9956 61.1737 64.2513 61.4791C65.1635 69.0745 69.8039 75.5388 76.2844 78.9843H66.1734C64.6863 78.9843 63.4765 80.1942 63.4765 81.6813V89.178C63.4765 90.0672 63.911 90.8549 64.5769 91.3464V97.8609C63.4873 98.2075 62.6953 99.2282 62.6953 100.431V107.928C62.6953 109.415 63.9052 110.625 65.3923 110.625H66.2988V116.484H11.3672V112.48C11.3672 111.509 10.5802 110.722 9.60938 110.722C8.63859 110.722 7.85156 111.509 7.85156 112.48V118.242C7.85156 119.213 8.63859 120 9.60938 120H109.451C110.939 120 112.148 118.79 112.148 117.303V109.806C112.148 108.319 110.939 107.109 109.451 107.109ZM106.911 91.8749V97.7343H103.489V96.2109C103.489 95.2399 102.701 94.4531 101.731 94.4531C100.76 94.4531 99.9729 95.2399 99.9729 96.2109V97.7343H96.4329V96.2109C96.4329 95.2399 95.6459 94.4531 94.6751 94.4531C93.7043 94.4531 92.9173 95.2399 92.9173 96.2109V97.7343H89.3773V96.2109C89.3773 95.2399 88.5902 94.4531 87.6195 94.4531C86.6487 94.4531 85.8616 95.2399 85.8616 96.2109V97.7343H82.3216V96.2109C82.3216 95.2399 81.5346 94.4531 80.5638 94.4531C79.5931 94.4531 78.806 95.2399 78.806 96.2109V97.7343H75.266V96.2109C75.266 95.2399 74.479 94.4531 73.5082 94.4531C72.5374 94.4531 71.7504 95.2399 71.7504 96.2109V97.7343H68.0927V91.8749H106.911ZM67.357 24.982H77.9039V37.6926C73.5019 39.6056 69.8128 42.8606 67.357 46.9389V24.982ZM67.6015 58.7289C67.6015 48.0267 76.3083 39.3196 87.0108 39.3196C97.7133 39.3196 106.42 48.0264 106.42 58.7289C106.42 69.4314 97.7133 78.1382 87.0108 78.1382C76.3083 78.1382 67.6015 69.4312 67.6015 58.7289ZM66.9921 82.4999H105.81V88.3593H102.388V86.8359C102.388 85.8649 101.601 85.0781 100.63 85.0781C99.6593 85.0781 98.8723 85.8649 98.8723 86.8359V88.3593H95.3323V86.8359C95.3323 85.8649 94.5452 85.0781 93.5745 85.0781C92.6037 85.0781 91.8166 85.8649 91.8166 86.8359V88.3593H88.2766V86.8359C88.2766 85.8649 87.4896 85.0781 86.5188 85.0781C85.548 85.0781 84.761 85.8649 84.761 86.8359V88.3593H81.221V86.8359C81.221 85.8649 80.434 85.0781 79.4632 85.0781C78.4924 85.0781 77.7054 85.8649 77.7054 86.8359V88.3593H74.1654V86.8359C74.1654 85.8649 73.3784 85.0781 72.4076 85.0781C71.4368 85.0781 70.6498 85.8649 70.6498 86.8359V88.3593H66.9921V82.4999V82.4999ZM66.2109 107.109V101.25H105.029V107.109H101.607V105.586C101.607 104.615 100.82 103.828 99.8489 103.828C98.8781 103.828 98.0911 104.615 98.0911 105.586V107.109H94.5511V105.586C94.5511 104.615 93.7641 103.828 92.7933 103.828C91.8225 103.828 91.0355 104.615 91.0355 105.586V107.109H87.4955V105.586C87.4955 104.615 86.7084 103.828 85.7377 103.828C84.7669 103.828 83.9798 104.615 83.9798 105.586V107.109H80.4398V105.586C80.4398 104.615 79.6528 103.828 78.682 103.828C77.7112 103.828 76.9242 104.615 76.9242 105.586V107.109H73.3842V105.586C73.3842 104.615 72.5972 103.828 71.6264 103.828C70.6556 103.828 69.8686 104.615 69.8686 105.586V107.109H68.9958H66.2109ZM108.633 116.484H105.21V114.961C105.21 113.99 104.423 113.203 103.452 113.203C102.482 113.203 101.695 113.99 101.695 114.961V116.484H98.1546V114.961C98.1546 113.99 97.3676 113.203 96.3968 113.203C95.426 113.203 94.639 113.99 94.639 114.961V116.484H91.6406H91.099V114.961C91.099 113.99 90.312 113.203 89.3412 113.203C88.3704 113.203 87.5834 113.99 87.5834 114.961V116.484H84.0434V114.961C84.0434 113.99 83.2563 113.203 82.2855 113.203C81.3148 113.203 80.5277 113.99 80.5277 114.961V116.484H76.9875V114.961C76.9875 113.99 76.2005 113.203 75.2297 113.203C74.2589 113.203 73.4719 113.99 73.4719 114.961V116.484H69.8142V110.625H108.633V116.484Z" fill="#CD2122"/>
<path d="M87.0105 56.8956C86.2621 56.8956 85.6532 56.3078 85.6532 55.5852C85.6532 54.8629 86.2621 54.2751 87.0105 54.2751C87.7588 54.2751 88.3675 54.8629 88.3675 55.5852C88.3675 56.5563 89.1545 57.3431 90.1253 57.3431C91.0961 57.3431 91.8831 56.5563 91.8831 55.5852C91.8831 53.5363 90.5852 51.7863 88.7624 51.0874C88.7104 50.163 87.9468 49.4292 87.0095 49.4292C86.0723 49.4292 85.3084 50.1635 85.2566 51.0878C83.4348 51.7872 82.1376 53.5368 82.1376 55.585C82.1376 58.2461 84.3236 60.411 87.0105 60.411C87.7588 60.411 88.3675 60.9988 88.3675 61.7212C88.3675 62.4416 87.7623 63.0276 87.017 63.0311C87.0147 63.0311 87.0121 63.0309 87.0098 63.0309C87.0077 63.0309 87.0055 63.0311 87.0032 63.0311C86.2584 63.0271 85.6534 62.4412 85.6534 61.7214C85.6534 60.7504 84.8664 59.9636 83.8956 59.9636C82.9248 59.9636 82.1378 60.7504 82.1378 61.7214C82.1378 63.7677 83.4327 65.5162 85.252 66.2167V66.2711C85.252 67.2421 86.039 68.0289 87.0098 68.0289C87.9805 68.0289 88.7676 67.2421 88.7676 66.2711V66.2174C90.5875 65.5174 91.8831 63.7684 91.8831 61.7214C91.8831 59.0603 89.6973 56.8956 87.0105 56.8956Z" fill="#CD2122"/>
<path d="M102.894 58.3252C102.829 55.7258 102.14 53.2784 100.966 51.1308C100.928 51.0055 100.876 50.8819 100.808 50.7636C100.738 50.6422 100.655 50.5339 100.562 50.4364C99.2485 48.2973 97.4429 46.4916 95.3037 45.1777C95.206 45.0856 95.0977 45.0022 94.9766 44.9321C94.8582 44.8637 94.7349 44.8123 94.6095 44.7741C92.4624 43.6004 90.0155 42.9123 87.4165 42.8464C87.286 42.8155 87.1505 42.7974 87.0106 42.7974C86.8707 42.7974 86.7352 42.8155 86.6047 42.8464C84.0057 42.912 81.5588 43.6004 79.4117 44.7741C79.2863 44.8123 79.163 44.8637 79.0447 44.9321C78.9233 45.0022 78.8147 45.0856 78.7172 45.178C76.5783 46.4916 74.7729 48.297 73.459 50.4359C73.3669 50.5337 73.2833 50.6422 73.2132 50.7636C73.1448 50.8822 73.0932 51.0057 73.055 51.1313C71.8812 53.2784 71.1931 55.7255 71.1275 58.3247C71.0968 58.4551 71.0787 58.5901 71.0787 58.7297C71.0787 58.8692 71.0968 59.0044 71.1275 59.1345C71.1929 61.734 71.8812 64.1813 73.0552 66.3289C73.0934 66.4543 73.145 66.5776 73.2132 66.6957C73.2816 66.8143 73.3639 66.919 73.4534 67.0149C74.768 69.158 76.576 70.9669 78.7187 72.2825C78.8159 72.3741 78.924 72.4573 79.0449 72.5269C79.1605 72.5933 79.2812 72.642 79.4035 72.6802C81.5532 73.857 84.0036 74.5472 86.6068 74.6126C86.7366 74.6433 86.8714 74.6611 87.0106 74.6611C87.1498 74.6611 87.2846 74.6433 87.4144 74.6126C90.0176 74.5472 92.468 73.857 94.6177 72.6802C94.7401 72.6422 94.8608 72.5933 94.9766 72.5267C95.0973 72.4571 95.2053 72.3741 95.3026 72.2825C97.4455 70.9667 99.2537 69.1576 100.568 67.0142C100.658 66.9183 100.74 66.8138 100.808 66.6954C100.876 66.5773 100.928 66.454 100.966 66.3289C102.14 64.1813 102.829 61.7335 102.894 59.1338C102.925 59.0037 102.942 58.869 102.942 58.7295C102.942 58.5901 102.925 58.4551 102.894 58.3252ZM98.4694 63.4022C97.7347 63.2307 96.9446 63.5478 96.548 64.235C96.1524 64.9203 96.2708 65.761 96.7833 66.3115C96.1473 67.1295 95.4113 67.8655 94.5933 68.5015C94.0428 67.989 93.2021 67.8706 92.5168 68.266C91.8298 68.6626 91.5123 69.4529 91.6841 70.1876C90.7393 70.5744 89.7364 70.8467 88.6925 70.9894C88.4738 70.2673 87.8037 69.7416 87.0104 69.7416C86.217 69.7416 85.5469 70.2673 85.3283 70.9894C84.2844 70.8469 83.2815 70.5744 82.3365 70.1876C82.508 69.4529 82.1907 68.6626 81.5037 68.266C80.818 67.8704 79.9775 67.9887 79.4272 68.5013C78.6092 67.8652 77.8735 67.1293 77.2374 66.3113C77.7502 65.7617 77.8688 64.9208 77.473 64.2355C77.0762 63.5485 76.2861 63.2312 75.5515 63.4027C75.1648 62.458 74.8925 61.4551 74.75 60.4112C75.4719 60.1925 75.9976 59.5226 75.9976 58.729C75.9976 57.9357 75.4719 57.2658 74.75 57.0469C74.8927 56.0023 75.1653 54.999 75.5525 54.0535C75.6837 54.0842 75.8166 54.1018 75.949 54.1018C76.5565 54.1018 77.1474 53.7865 77.473 53.2226C77.8686 52.5376 77.7502 51.6969 77.2379 51.1463C77.8744 50.3279 78.6108 49.5915 79.4295 48.9549C79.7574 49.2601 80.187 49.4272 80.6267 49.4272C80.9248 49.4272 81.2272 49.3512 81.504 49.1914C82.1909 48.7948 82.5083 48.0048 82.3369 47.2702C83.2819 46.8835 84.2846 46.6109 85.3285 46.4684C85.5472 47.1903 86.2173 47.716 87.0104 47.716C87.8035 47.716 88.4736 47.1903 88.6923 46.4684C89.7362 46.6109 90.7391 46.8833 91.6838 47.27C91.5123 48.0045 91.8298 48.7948 92.5168 49.1912C92.7938 49.351 93.0959 49.4269 93.3941 49.4269C93.8337 49.4269 94.2633 49.2596 94.5912 48.9547C95.4099 49.591 96.1463 50.3274 96.7829 51.1458C96.2703 51.6962 96.1519 52.5371 96.5476 53.2222C96.8731 53.7861 97.464 54.1013 98.0715 54.1013C98.2039 54.1013 98.3368 54.0837 98.4683 54.053C98.8555 54.9985 99.128 56.0019 99.2708 57.0465C98.5489 57.2651 98.0232 57.9352 98.0232 58.7286C98.0232 59.5219 98.5489 60.192 99.271 60.4107C99.1285 61.4546 98.8562 62.4572 98.4694 63.4022Z" fill="#CD2122"/>
<path d="M60.1001 73.0212C59.4862 72.4073 58.6125 72.1474 57.7631 72.3274L48.5313 74.2779C47.6126 74.4719 46.8755 75.1519 46.608 76.0521C46.3406 76.9523 46.5872 77.9243 47.2514 78.5885L49.8853 81.2224L38.8816 92.2263H26.7961C26.3299 92.2263 25.8827 92.4115 25.5532 92.741L17.1157 101.178C16.4292 101.865 16.4292 102.978 17.1157 103.665C17.4588 104.008 17.9088 104.18 18.3586 104.18C18.8083 104.18 19.2583 104.008 19.6015 103.665L27.524 95.7422H39.6094C40.0755 95.7422 40.5227 95.557 40.8523 95.2275L52.3711 83.7087L54.5327 85.8703C55.0198 86.3571 55.6718 86.6194 56.3402 86.6194C56.5835 86.6194 56.8289 86.5849 57.0691 86.5134C57.9696 86.246 58.6493 85.5091 58.8434 84.5904L60.7941 75.3583C60.9734 74.5087 60.7139 73.635 60.1001 73.0212ZM55.7688 82.1344L53.6156 79.9812C53.6151 79.9807 53.6147 79.98 53.614 79.9795C53.6133 79.9791 53.6128 79.9786 53.6123 79.9779L50.9866 77.3524L57.0499 76.0713L55.7688 82.1344Z" fill="#CD2122"/>
<path d="M59.0916 107.109H18.3591C17.3883 107.109 16.6013 107.896 16.6013 108.867C16.6013 109.838 17.3883 110.625 18.3591 110.625H59.0916C60.0624 110.625 60.8494 109.838 60.8494 108.867C60.8494 107.896 60.0624 107.109 59.0916 107.109Z" fill="#CD2122"/>
</svg>
