<svg width="120" height="93" viewBox="0 0 120 93" fill="none" xmlns="http://www.w3.org/2000/svg">
<g clip-path="url(#clip0)">
<path d="M51.8808 92.9952H20.0099C15.4412 93.0455 10.9962 91.5138 7.43101 88.6607C3.86584 85.8076 1.40075 81.8094 0.455087 77.3461C-2.04616 66.2175 6.20796 54.8341 17.5636 53.8002C18.336 53.6892 19.1146 53.6275 19.8948 53.6154C22.7062 53.7253 22.6512 53.7253 23.7167 51.2628C28.6892 39.7745 37.4336 33.441 49.9098 32.3271C50.8232 32.2961 51.72 32.0748 52.5427 31.6774C53.3654 31.28 54.0959 30.7153 54.6872 30.0195C61.6907 22.3523 70.5051 19.5802 80.5001 22.5671C90.6051 25.5641 96.5081 32.6818 98.234 43.1461C98.9227 47.5859 98.3075 52.1298 96.4631 56.2277C96.0179 57.2517 96.223 57.7662 97.0033 58.4704C102.736 63.6452 105.072 70.0886 103.327 77.6259C101.506 85.5028 96.398 90.4578 88.5441 92.4557C87.0256 92.8193 85.4684 92.9971 83.9068 92.9852C73.2415 93.0151 62.5611 92.9952 51.8808 92.9952ZM51.9108 85.7526C62.4161 85.7526 72.9213 85.7875 83.4266 85.7226C85.0934 85.7164 86.7502 85.4657 88.344 84.9784C93.7967 83.2751 97.2885 77.4261 96.5331 71.5271C95.8128 65.9078 90.5301 61.0678 84.8773 60.853C82.1659 60.7531 82.0859 60.853 82.0709 63.5153C82.0709 66.2825 80.6902 67.9108 78.384 67.8908C76.1779 67.8908 74.8173 66.2325 74.7772 63.5802C74.7772 61.6322 74.9723 59.6243 74.5971 57.7412C72.5961 47.6665 63.5916 39.8944 53.5866 39.4149C42.6812 38.9154 33.3265 45.189 29.9098 55.2088C28.9093 58.2057 29.1394 61.2526 29.0544 64.3045C29.0493 65.1748 28.7322 66.0145 28.1604 66.6715C27.5887 67.3285 26.8002 67.7593 25.9378 67.8858C25.0399 68.0233 24.1235 67.8106 23.3784 67.2917C22.6333 66.7728 22.1168 65.9875 21.9358 65.0987C21.7416 64.2812 21.6874 63.4367 21.7757 62.6012C21.9258 61.2226 21.2755 60.888 20.0549 60.823C13.5867 60.5034 7.43357 66.1426 7.24348 72.611C7.02837 79.9934 12.4561 85.6976 19.8548 85.7326C30.5551 85.7875 41.2355 85.7526 51.9108 85.7526ZM61.2205 33.5609C62.6612 34.1653 63.9718 34.6398 65.2225 35.2492C72.7262 38.9604 77.9288 44.7395 80.6802 52.6664C81.0254 53.6653 81.4906 53.8551 82.4861 53.8452C84.4231 53.8469 86.3586 53.9536 88.284 54.1648C89.1194 54.2448 89.5896 54.1149 89.9448 53.2558C91.2159 50.2635 91.608 46.9719 91.0754 43.7655C89.6897 35.5988 83.5166 29.6848 75.2825 28.7808C69.9648 28.1764 65.2925 29.8747 61.2205 33.5609Z" fill="#CD2122"/>
<path d="M112.741 50.104C111.571 50.104 110.395 50.139 109.24 50.104C108.341 50.0754 107.483 49.7235 106.824 49.1131C106.165 48.5027 105.749 47.6749 105.653 46.7824C105.518 45.0292 106.698 43.2111 108.539 43.0662C111.37 42.8567 114.213 42.8567 117.043 43.0662C118.834 43.1961 120.125 45.0642 120 46.7525C119.909 47.6461 119.499 48.4772 118.845 49.0942C118.191 49.7112 117.337 50.0732 116.438 50.114C115.203 50.144 113.972 50.104 112.741 50.104Z" fill="#CD2122"/>
<path d="M77.0385 7.30266C77.0385 8.41652 77.0735 9.53038 77.0385 10.6442C77.0409 11.5408 76.7129 12.4069 76.1169 13.0775C75.5209 13.7481 74.6987 14.1763 73.8069 14.2805C71.8059 14.4204 70.04 13.2266 69.8949 11.2336C69.6949 8.51509 69.6949 5.78554 69.8949 3.06699C70.04 1.1989 71.991 -0.159716 73.6868 0.0151052C74.5822 0.12597 75.4096 0.549143 76.0228 1.20991C76.6361 1.87068 76.9958 2.72655 77.0385 3.62642C77.0935 4.85017 77.0385 6.07392 77.0385 7.30266Z" fill="#CD2122"/>
<path d="M98.5042 25.1493C97.5487 24.435 96.3731 23.8756 95.6728 22.9565C95.25 22.4169 95.0346 21.7439 95.0658 21.0595C95.097 20.375 95.3727 19.7244 95.8429 19.2253C97.7023 17.154 99.6711 15.1832 101.741 13.3213C103.117 12.0976 105.193 12.4223 106.423 13.7459C107.022 14.3805 107.364 15.2141 107.384 16.0859C107.403 16.9576 107.098 17.8055 106.528 18.4661C104.787 20.3442 102.961 22.1523 101.08 23.8906C100.51 24.415 99.6398 24.6098 98.5042 25.1493Z" fill="#CD2122"/>
<path d="M47.9239 25.0243C47.0435 24.5248 46.048 24.1252 45.3076 23.4609C43.7318 22.0523 42.2661 20.5139 40.8054 18.9655C39.1145 17.2672 39.0195 15.1694 40.5202 13.6709C42.021 12.1724 44.122 12.2224 45.8629 13.9057C47.6038 15.5889 49.2046 17.1873 50.8004 18.9006C51.2853 19.4129 51.595 20.0656 51.6849 20.7648C51.7748 21.4639 51.6402 22.1736 51.3006 22.7916C50.6903 24.1102 49.5848 24.7895 47.9239 25.0243Z" fill="#CD2122"/>
</g>
<defs>
<clipPath id="clip0">
<rect width="120" height="93" fill="white"/>
</clipPath>
</defs>
</svg>
