<svg width="120" height="93" viewBox="0 0 120 93" fill="none" xmlns="http://www.w3.org/2000/svg">
<g clip-path="url(#clip0)">
<path d="M52.1392 92.9952H20.2685C15.6999 93.0455 11.2549 91.5138 7.68974 88.6607C4.12461 85.8076 1.65953 81.8094 0.713877 77.3462C-1.78735 66.2175 6.4667 54.8342 17.8223 53.8002C18.5946 53.6892 19.3732 53.6275 20.1534 53.6154C22.9648 53.7253 22.9098 53.7253 23.9753 51.2628C28.9478 39.7745 37.6921 33.441 50.1682 32.3272C51.0816 32.2961 51.9784 32.0748 52.8011 31.6774C53.6238 31.28 54.3542 30.7153 54.9455 30.0195C61.949 22.3523 70.7633 19.5802 80.7582 22.5671C90.8632 25.5641 96.7661 32.6818 98.4919 43.1461C99.1806 47.5859 98.5655 52.1298 96.7211 56.2277C96.2759 57.2517 96.481 57.7662 97.2613 58.4704C102.994 63.6452 105.33 70.0886 103.584 77.6259C101.764 85.5028 96.656 90.4578 88.8022 92.4557C87.2836 92.8193 85.7264 92.9971 84.1649 92.9852C73.4997 93.0151 62.8194 92.9952 52.1392 92.9952ZM52.1692 85.7526C62.6743 85.7526 73.1795 85.7875 83.6847 85.7226C85.3515 85.7164 87.0083 85.4657 88.6021 84.9784C94.0548 83.2751 97.5465 77.4261 96.7911 71.5271C96.0708 65.9078 90.7882 61.0678 85.1354 60.853C82.424 60.7531 82.344 60.853 82.329 63.5153C82.329 66.2825 80.9483 67.9108 78.6422 67.8908C76.4361 67.8908 75.0754 66.2325 75.0354 63.5802C75.0354 61.6322 75.2305 59.6243 74.8553 57.7412C72.8543 47.6665 63.8499 39.8944 53.845 39.4149C42.9396 38.9154 33.585 45.189 30.1684 55.2088C29.1679 58.2057 29.398 61.2526 29.3129 64.3045C29.3079 65.1748 28.9907 66.0145 28.419 66.6715C27.8473 67.3285 27.0588 67.7593 26.1964 67.8858C25.2985 68.0233 24.382 67.8106 23.637 67.2917C22.8919 66.7728 22.3754 65.9875 22.1944 65.0987C22.0002 64.2812 21.9461 63.4368 22.0344 62.6012C22.1844 61.2226 21.5341 60.888 20.3135 60.823C13.8453 60.5034 7.69231 66.1426 7.50221 72.611C7.28711 79.9934 12.7148 85.6976 20.1134 85.7326C30.8137 85.7875 41.4939 85.7526 52.1692 85.7526ZM61.4787 33.5609C62.9195 34.1653 64.2301 34.6398 65.4807 35.2492C72.9844 38.9604 78.187 44.7395 80.9383 52.6664C81.2835 53.6653 81.7487 53.8552 82.7442 53.8452C84.6812 53.8469 86.6167 53.9536 88.5421 54.1648C89.3775 54.2448 89.8477 54.1149 90.2029 53.2558C91.4739 50.2635 91.8661 46.9719 91.3334 43.7655C89.9477 35.5988 83.7747 29.6848 75.5407 28.7808C70.2231 28.1764 65.5508 29.8747 61.4787 33.5609Z" fill="#CD2122" stroke="white"/>
<path d="M112.999 50.104C111.829 50.104 110.653 50.139 109.497 50.104C108.599 50.0754 107.741 49.7235 107.082 49.1131C106.423 48.5027 106.007 47.6749 105.911 46.7824C105.776 45.0292 106.956 43.2111 108.797 43.0662C111.628 42.8567 114.47 42.8567 117.301 43.0662C119.092 43.1961 120.383 45.0642 120.258 46.7525C120.166 47.6461 119.756 48.4772 119.103 49.0942C118.449 49.7112 117.595 50.0732 116.696 50.114C115.46 50.144 114.23 50.104 112.999 50.104Z" fill="#CD2122" stroke="white"/>
<path d="M77.2966 7.30266C77.2966 8.41652 77.3317 9.53038 77.2966 10.6442C77.2991 11.5408 76.971 12.4069 76.3751 13.0775C75.7791 13.7481 74.9569 14.1763 74.0651 14.2805C72.0641 14.4204 70.2982 13.2266 70.1531 11.2336C69.9531 8.51509 69.9531 5.78554 70.1531 3.06699C70.2982 1.1989 72.2492 -0.159717 73.945 0.0151043C74.8404 0.125969 75.6677 0.549142 76.281 1.20991C76.8942 1.87068 77.254 2.72655 77.2966 3.62642C77.3517 4.85016 77.2966 6.07391 77.2966 7.30266Z" fill="#CD2122" stroke="white"/>
<path d="M98.7622 25.1493C97.8067 24.435 96.6311 23.8756 95.9308 22.9565C95.508 22.4169 95.2926 21.7439 95.3238 21.0595C95.355 20.375 95.6307 19.7244 96.1009 19.2253C97.9603 17.154 99.929 15.1832 101.999 13.3213C103.374 12.0976 105.45 12.4223 106.681 13.7459C107.28 14.3805 107.622 15.2141 107.641 16.0859C107.661 16.9576 107.356 17.8055 106.786 18.4661C105.045 20.3442 103.219 22.1523 101.338 23.8906C100.768 24.415 99.8977 24.6098 98.7622 25.1493Z" fill="#CD2122" stroke="white"/>
<path d="M48.1823 25.0243C47.3019 24.5248 46.3064 24.1252 45.566 23.4609C43.9903 22.0523 42.5245 20.5139 41.0638 18.9655C39.373 17.2672 39.278 15.1694 40.7787 13.6709C42.2794 12.1724 44.3805 12.2224 46.1213 13.9057C47.8622 15.5889 49.463 17.1873 51.0587 18.9006C51.5437 19.4129 51.8534 20.0656 51.9432 20.7648C52.0331 21.4639 51.8986 22.1736 51.559 22.7916C50.9487 24.1102 49.8431 24.7895 48.1823 25.0243Z" fill="#CD2122" stroke="white"/>
</g>
<rect x="0.258792" width="119.999" height="93" stroke="white"/>
<defs>
<clipPath id="clip0">
</clipPath>
</defs>
</svg>
