<svg id="Layer_8" data-name="Layer 8" xmlns="http://www.w3.org/2000/svg" viewBox="0 0 52 52"><defs><style>.cls-1{fill:#cd2122;}</style></defs><title>app</title><path class="cls-1" d="M37.75,3.12H35.13V4.87h2.62Z"/><path class="cls-1" d="M39.5,4.87a.87.87,0,0,0,0-1.74.86.86,0,0,0-.88.87A.87.87,0,0,0,39.5,4.87Z"/><path class="cls-1" d="M19.41,46.67a2.6,2.6,0,0,0-1.45.44,2.5,2.5,0,0,0-1,1.17,2.6,2.6,0,0,0-.15,1.51,2.69,2.69,0,0,0,.71,1.34,2.65,2.65,0,0,0,1.34.71A2.61,2.61,0,0,0,22,49.28a2.63,2.63,0,0,0-.77-1.85,2.6,2.6,0,0,0-1.85-.76Zm0,3.48a.83.83,0,0,1-.48-.15.77.77,0,0,1-.32-.39.78.78,0,0,1-.05-.5.8.8,0,0,1,.24-.45.91.91,0,0,1,.44-.24,1,1,0,0,1,.51,0,.94.94,0,0,1,.39.32,1,1,0,0,1,.15.49.87.87,0,0,1-.26.61.85.85,0,0,1-.62.26Z"/><path class="cls-1" d="M52,21.78a3.54,3.54,0,0,0-.31-1.43,3.48,3.48,0,0,0-.87-1.18A3.59,3.59,0,0,0,51.9,17.4a3.49,3.49,0,0,0-3.38-4.33V4.36A4.34,4.34,0,0,0,44.17,0H28.49a4.37,4.37,0,0,0-4.35,4.35V19.16H22.39a.86.86,0,0,0-.61.25L9.33,31.86l-.26-.26a.88.88,0,0,0-1.23,0L0,39.44l1.23,1.23,7.22-7.22L23.76,48.77l-2,2L23,52l2.61-2.61a1.07,1.07,0,0,0,.19-.28,1,1,0,0,0,.07-.34.93.93,0,0,0-.07-.33.77.77,0,0,0-.19-.28l-.25-.26,6.09-6.09h12.7a4.35,4.35,0,0,0,4.36-4.35V35.72a3.48,3.48,0,0,0,2.3-6.1,3.65,3.65,0,0,0,.88-1.18,3.47,3.47,0,0,0-.88-4.05,3.38,3.38,0,0,0,.88-1.17A3.55,3.55,0,0,0,52,21.78Zm-1.74-5.22a1.74,1.74,0,0,1-1.74,1.74h-.87a1.74,1.74,0,0,1-1.75-1.75,1.76,1.76,0,0,1,1.75-1.74h.87a1.74,1.74,0,0,1,1.74,1.75ZM28.49,26.78a7.39,7.39,0,0,0,.87-.29V27a.9.9,0,0,0,.25.62.89.89,0,0,0,.62.25h2.61v2.61a.87.87,0,0,0,.25.62.91.91,0,0,0,.62.26h8.71a.89.89,0,0,0,.87-.87V17.42a.87.87,0,0,0-.87-.87H39.81V13.94a.85.85,0,0,0-.87-.87H30.23a.87.87,0,0,0-.61.26.84.84,0,0,0-.26.62v5.22h-.87V4.35h2.25L33.1,6.71a.85.85,0,0,0,.62.26h5.22a.9.9,0,0,0,.62-.25l2.36-2.36h2.25v33.1H28.48Zm13.06-8.49V29.62h-7V18.29Zm-3.48-1.74H33.71a.87.87,0,0,0-.87.87v1.74H31.1V14.81h7Zm-5.23,9.58H31.1v-.66a6.94,6.94,0,0,0,1.74-2.07Zm-7-21.78a2.63,2.63,0,0,1,2.61-2.61H44.17A2.6,2.6,0,0,1,46,2.51a2.63,2.63,0,0,1,.77,1.85v8.82a3.33,3.33,0,0,0-.87.36V4.36a1.78,1.78,0,0,0-.51-1.23,1.73,1.73,0,0,0-1.23-.51H41.56a.87.87,0,0,0-.62.25L38.58,5.23h-4.5L31.72,2.87a.87.87,0,0,0-.61-.26H28.49a1.74,1.74,0,0,0-1.74,1.74V19.16h-.87ZM24.12,46.67,10.56,33.09,22.75,20.9H31.9a5.24,5.24,0,0,1-5.16,4.36.86.86,0,0,0-.61.25l-4.36,4.35a.89.89,0,0,0,0,1.24,7.1,7.1,0,0,1,.37,9.65l-.42.49,1.33,1.13.41-.48a8.66,8.66,0,0,0,1.34-2.11,4.41,4.41,0,0,0,3.68,2H29Zm0-15.42c-.17-.26-.35-.5-.54-.74l.54-.54Zm20,8.82H28.48a2.59,2.59,0,0,1-2.61-2.61V28.23l.87-.87V37.45a1.74,1.74,0,0,0,1.74,1.74H44.15a1.74,1.74,0,0,0,1.75-1.74V35.25a3.33,3.33,0,0,0,.87.36v1.85a2.63,2.63,0,0,1-2.62,2.61Zm6.1-7.84A1.74,1.74,0,0,1,48.51,34h-.87a1.74,1.74,0,0,1,0-3.48h.87a1.74,1.74,0,0,1,1.74,1.74Zm0-5.22a1.73,1.73,0,0,1-.51,1.23,1.76,1.76,0,0,1-1.23.51h-.87a1.78,1.78,0,0,1-1.23-.51,1.75,1.75,0,0,1,0-2.47,1.78,1.78,0,0,1,1.23-.51h.87a1.75,1.75,0,0,1,1.23.52A1.72,1.72,0,0,1,50.25,27Zm-2.61-3.49A1.73,1.73,0,0,1,46.41,23a1.78,1.78,0,0,1-.51-1.23,1.76,1.76,0,0,1,.51-1.23A1.73,1.73,0,0,1,47.64,20h.88a1.73,1.73,0,0,1,1.23.51,1.78,1.78,0,0,1,.51,1.23A1.76,1.76,0,0,1,49.75,23a1.74,1.74,0,0,1-1.24.51Z"/></svg>