<svg id="Layer_7" data-name="Layer 7" xmlns="http://www.w3.org/2000/svg" xmlns:xlink="http://www.w3.org/1999/xlink" viewBox="0 0 52 52"><defs><style>.cls-1{fill:none;}.cls-2{clip-path:url(#clip-path);}.cls-3{fill:#cd2122;}</style><clipPath id="clip-path"><rect class="cls-1" x="0.01" y="0.01" width="51.98" height="51.98"/></clipPath></defs><title>Artboard 1</title><g class="cls-2"><path class="cls-3" d="M33,46.89a4,4,0,1,0,0,2c5.09-.33,9.36-4.46,10.49-9.44a7.11,7.11,0,0,0,4.92-4.08l1.22-2.79A7.11,7.11,0,0,0,46,23.25l-2.18-.95v-.86a19.6,19.6,0,0,0-4-11.84L41.3,8.37a1,1,0,0,0,.12-1.48,21.1,21.1,0,0,0-2.73-2.53,1,1,0,0,0-1.42.18A1,1,0,0,0,37.45,6a18.85,18.85,0,0,1,1.72,1.5L36,10A14.61,14.61,0,0,0,16,10l-3.2-2.56A18.71,18.71,0,0,1,29.61,2.39,1,1,0,0,0,30,.4,20.52,20.52,0,0,0,26,0,20.86,20.86,0,0,0,10.59,6.88a1,1,0,0,0,.12,1.48l1.54,1.23a19.68,19.68,0,0,0-4,11.84v.85l-2.18,1a7.12,7.12,0,0,0-3.67,9.35l1.22,2.8A7.1,7.1,0,0,0,13,39.05l2.79-1.22a1,1,0,0,0,.53-1.33l-6-13.76V21.43a17.49,17.49,0,0,1,3.56-10.57l1.65,1.31a1,1,0,0,0,1.37-.09,12.57,12.57,0,0,1,18.31,0,1,1,0,0,0,1.37.09l1.65-1.31a17.49,17.49,0,0,1,3.56,10.57v1.31l-6,13.75a1,1,0,0,0,.52,1.34L39,39.06a7.08,7.08,0,0,0,2.3.58A10,10,0,0,1,33,46.89ZM29,50a2,2,0,1,1,2-2A2,2,0,0,1,29,50ZM14,36.38l-1.86.81a5.08,5.08,0,0,1-6.69-2.62L4.24,31.78A5.08,5.08,0,0,1,6.86,25.1l1.87-.81Zm25.84.82L38,36.39l5.3-12.09,1.86.81a5.09,5.09,0,0,1,2.61,6.69l-1.22,2.79a5.08,5.08,0,0,1-6.68,2.61Z"/><path class="cls-3" d="M34.13,3.87a1,1,0,1,0-1-1A1,1,0,0,0,34.13,3.87Z"/></g></svg>