<svg id="Layer_6" data-name="Layer 6" xmlns="http://www.w3.org/2000/svg" viewBox="0 0 52 52"><defs><style>.cls-1{fill:#cd2122;}</style></defs><title>facebook</title><path class="cls-1" d="M22.89,39.41h5.23a.82.82,0,0,0,.81-.82V26.82h2.72a.8.8,0,0,0,.8-.73l.46-4.44a.8.8,0,0,0-.2-.63.84.84,0,0,0-.61-.27H28.93V19c0-.37.12-.4.3-.4H32a.81.81,0,0,0,.81-.81V13.42a.81.81,0,0,0-.81-.81l-3.88,0a5.73,5.73,0,0,0-4.9,2.2,6.71,6.71,0,0,0-1.19,3.9v2.06H20.4a.81.81,0,0,0-.81.81V26a.81.81,0,0,0,.81.81h1.67V38.59A.82.82,0,0,0,22.89,39.41ZM21.21,25.2V22.38h1.68a.82.82,0,0,0,.81-.82V18.69a5.09,5.09,0,0,1,.87-2.93,4.18,4.18,0,0,1,3.59-1.54h3.07v2.7h-2a1.87,1.87,0,0,0-1.93,2v2.61a.82.82,0,0,0,.82.82H31.2l-.29,2.82H28.12a.82.82,0,0,0-.82.81V37.78H23.7V26a.81.81,0,0,0-.81-.81Z"/><path class="cls-1" d="M44.39,7.62a26,26,0,0,0-36.77,0A26,26,0,0,0,26,52,26,26,0,0,0,52,26,25.82,25.82,0,0,0,44.39,7.62ZM43.24,43.24A24.38,24.38,0,1,1,50.38,26,24.25,24.25,0,0,1,43.24,43.24Z"/><path class="cls-1" d="M43.93,11.68a.81.81,0,0,0-1.27,1A21.13,21.13,0,0,1,12.17,41.75.81.81,0,0,0,11.08,43,22.75,22.75,0,0,0,43.93,11.68Z"/><path class="cls-1" d="M5.12,26A21.13,21.13,0,0,1,40.33,10.25.81.81,0,0,0,41.42,9,22.75,22.75,0,0,0,8.57,40.32a.81.81,0,0,0,.64.3.76.76,0,0,0,.51-.18.81.81,0,0,0,.12-1.14A21.16,21.16,0,0,1,5.12,26Z"/></svg>