<svg id="Layer_5" data-name="Layer 5" xmlns="http://www.w3.org/2000/svg" xmlns:xlink="http://www.w3.org/1999/xlink" viewBox="0 0 52 52"><defs><style>.cls-1{fill:none;}.cls-2{clip-path:url(#clip-path);}.cls-3{fill:#cd2122;}</style><clipPath id="clip-path" transform="translate(0 0)"><rect class="cls-1" width="52" height="52"/></clipPath></defs><title>ivr</title><g class="cls-2"><path class="cls-3" d="M50.64,40.12l-10.53-7a3.06,3.06,0,0,0-4.11.66l-3.07,4a1.3,1.3,0,0,1-1.68.35l-.58-.32c-1.94-1.05-4.34-2.37-9.19-7.22s-6.16-7.25-7.21-9.18L14,20.76a1.32,1.32,0,0,1,.34-1.69L18.23,16a3.07,3.07,0,0,0,.67-4.12l-7-10.52A3.06,3.06,0,0,0,7.76.44L3.36,3.08A6.26,6.26,0,0,0,.53,6.76C-1,12.53.14,22.5,14.82,37.18,26.5,48.86,35.19,52,41.17,52a15.57,15.57,0,0,0,4.07-.53,6.26,6.26,0,0,0,3.68-2.83l2.64-4.4A3.06,3.06,0,0,0,50.64,40.12Zm-.57,3.23-2.64,4.4a4.51,4.51,0,0,1-2.64,2c-5.34,1.46-14.65.25-28.74-13.85S.74,12.55,2.2,7.22A4.51,4.51,0,0,1,4.25,4.57L8.66,1.93a1.31,1.31,0,0,1,1.78.4l3.82,5.73,3.2,4.8a1.34,1.34,0,0,1-.29,1.78l-3.94,3.07a3,3,0,0,0-.81,3.89l.32.57c1.1,2,2.48,4.55,7.51,9.58s7.55,6.4,9.58,7.51l.57.31a3,3,0,0,0,3.89-.8l3.07-3.94a1.33,1.33,0,0,1,1.78-.29l10.53,7A1.33,1.33,0,0,1,50.07,43.35Z" transform="translate(0 0)"/><path class="cls-3" d="M29.47,8.67A14.75,14.75,0,0,1,44.2,23.4a.87.87,0,1,0,1.73,0A16.48,16.48,0,0,0,29.47,6.94a.87.87,0,1,0,0,1.73Z" transform="translate(0 0)"/><path class="cls-3" d="M29.47,13.87A9.55,9.55,0,0,1,39,23.4a.87.87,0,1,0,1.73,0A11.27,11.27,0,0,0,29.47,12.14a.87.87,0,1,0,0,1.73Z" transform="translate(0 0)"/><path class="cls-3" d="M29.47,19.07A4.34,4.34,0,0,1,33.8,23.4a.87.87,0,1,0,1.73,0,6.06,6.06,0,0,0-6.06-6.06.87.87,0,1,0,0,1.73Z" transform="translate(0 0)"/></g></svg>