<svg id="Layer_4" data-name="Layer 4" xmlns="http://www.w3.org/2000/svg" xmlns:xlink="http://www.w3.org/1999/xlink" viewBox="0 0 51.12 51.26"><defs><style>.cls-1{fill:none;}.cls-2{clip-path:url(#clip-path);}.cls-3{fill:#cd2122;}</style><clipPath id="clip-path" transform="translate(-0.44 0)"><rect class="cls-1" x="0.01" y="0.01" width="51.98" height="51.25"/></clipPath></defs><title>sms</title><g class="cls-2"><path class="cls-3" d="M24.71,3.43H23V5.13h1.73Z" transform="translate(-0.44 0)"/><path class="cls-3" d="M28.17,3.43H26.44v1.7h1.73Z" transform="translate(-0.44 0)"/><path class="cls-3" d="M26.43,46.14H24.69v1.71h1.74Z" transform="translate(-0.44 0)"/><path class="cls-3" d="M7.37,24.77H5.64v1.71H7.37Z" transform="translate(-0.44 0)"/><path class="cls-3" d="M35.1,15.39H33.37V17.1H35.1Z" transform="translate(-0.44 0)"/><path class="cls-3" d="M47.23,18.81H32.5v1.71H47.23Z" transform="translate(-0.44 0)"/><path class="cls-3" d="M45.49,22.23h-13v1.71h13Z" transform="translate(-0.44 0)"/><path class="cls-3" d="M47.23,15.39H37.7V17.1h9.53Z" transform="translate(-0.44 0)"/><path class="cls-3" d="M50.7,12H42V3.43A3.44,3.44,0,0,0,38.57,0h-26A3.45,3.45,0,0,0,9.11,3.42V21.36H1.31a.85.85,0,0,0-.87.85V35.88a.86.86,0,0,0,.86.85H9.1V47.84a3.45,3.45,0,0,0,3.46,3.42h26A3.43,3.43,0,0,0,42,47.85V29.41l2.09-2.06h6.57a.86.86,0,0,0,.87-.85V12.83A.86.86,0,0,0,50.7,12ZM10.85,3.42a1.72,1.72,0,0,1,1.73-1.71h26A1.72,1.72,0,0,1,40.3,3.43V6.85H10.85ZM2.17,35v-12H22.1V35H17.77a.9.9,0,0,0-.62.25l-2,2-2-2a.86.86,0,0,0-.61-.25ZM40.29,47.85a1.73,1.73,0,0,1-1.74,1.71h-26a1.73,1.73,0,0,1-1.73-1.71V44.42H40.29Zm0-5.13H10.83v-6h1.38l2.34,2.32a.89.89,0,0,0,1.23,0l2.34-2.31H23a.86.86,0,0,0,.87-.86V22.22a.87.87,0,0,0-.87-.86H10.84V8.55H40.3V12H29a.86.86,0,0,0-.87.85V26.49a.85.85,0,0,0,.86.85H38.2l2.09,2.06Zm9.54-17.08H43.76a.86.86,0,0,0-.61.25l-2,2-2-2a.86.86,0,0,0-.61-.25H29.9v-12H49.83Z" transform="translate(-0.44 0)"/><path class="cls-3" d="M19.5,28.19H4.77V29.9H19.5Z" transform="translate(-0.44 0)"/><path class="cls-3" d="M17.77,31.61h-13v1.7h13Z" transform="translate(-0.44 0)"/><path class="cls-3" d="M19.5,24.78H9.11v1.71H19.5Z" transform="translate(-0.44 0)"/></g></svg>