<svg id="Layer_3" data-name="Layer 3" xmlns="http://www.w3.org/2000/svg" xmlns:xlink="http://www.w3.org/1999/xlink" viewBox="0 0 51.74 43.89"><defs><style>.cls-1{fill:none;}.cls-2{clip-path:url(#clip-path);}.cls-3{fill:#cd2122;}</style><clipPath id="clip-path" transform="translate(0 -4.02)"><rect class="cls-1" width="51.74" height="51.93"/></clipPath></defs><title>vms</title><g class="cls-2"><path class="cls-3" d="M19.31,20.4a1.65,1.65,0,0,0-1.65,1.66v2.33A1.65,1.65,0,0,0,19.31,26h3.26a1.65,1.65,0,0,0,1.65-1.65V22.06a1.65,1.65,0,0,0-1.65-1.66Zm3.39,1.66v2.33a.13.13,0,0,1-.13.13H19.31a.13.13,0,0,1-.13-.13V22.06a.13.13,0,0,1,.13-.13h3.26A.13.13,0,0,1,22.7,22.06Z" transform="translate(0 -4.02)"/><path class="cls-3" d="M38.61,16.17V11.36a.76.76,0,1,0-1.52,0V40.9h-2.7V34.49a.76.76,0,0,0-1.52,0v5.35A42.71,42.71,0,0,0,8.08,28V26H14a1.61,1.61,0,0,0,1.6-1.61V22A1.61,1.61,0,0,0,14,20.4H8.08V18.46A42.73,42.73,0,0,0,32.87,6.6V31.24a.76.76,0,0,0,1.52,0V5.54h2.7V8.11a.76.76,0,0,0,1.52,0v-3A1.06,1.06,0,0,0,37.55,4H33.76a1.06,1.06,0,0,0-.75.31l-.93.92A41.25,41.25,0,0,1,5.55,17.16,5.93,5.93,0,0,0,0,23.08v.28a5.93,5.93,0,0,0,5.55,5.92h.12V32.8a.76.76,0,0,0,1.52,0V29.42c.79.08,1.58.18,2.37.31v8.52a1.65,1.65,0,0,0,1.64,1.64h1.34l-.75,2.39H7.19V36a.76.76,0,1,0-1.52,0V46.5a1.41,1.41,0,0,0,1.4,1.41h3.52a1.41,1.41,0,0,0,1.34-1l4.81-15.36a41.3,41.3,0,0,1,15.34,9.63l.93.92a1.06,1.06,0,0,0,.75.31h3.79a1.06,1.06,0,0,0,1.06-1.06V30.27a5,5,0,0,0,4.33-5.08V21.25a5,5,0,0,0-4.33-5.08ZM14,21.93A.08.08,0,0,1,14,22v2.42a.09.09,0,0,1-.08.09H8.08V21.93ZM1.52,23.36v-.28a4.41,4.41,0,0,1,4.13-4.4l.91-.07v9.22l-.91-.07a4.4,4.4,0,0,1-4.13-4.4Zm9,23H7.19V43.8h4.12Zm2.51-8H11.2a.12.12,0,0,1-.12-.12V30a43.48,43.48,0,0,1,4.22,1.08ZM41.42,25.19a3.42,3.42,0,0,1-2.81,3.54v-11a3.43,3.43,0,0,1,2.81,3.54Z" transform="translate(0 -4.02)"/><path class="cls-3" d="M44.64,14.17a.74.74,0,0,0,.5-.2l3-2.74a.77.77,0,0,0,.05-1.08.76.76,0,0,0-1.07-.06l-3,2.75a.76.76,0,0,0,.51,1.33Z" transform="translate(0 -4.02)"/><path class="cls-3" d="M47.65,19.47a.76.76,0,0,0,.72.52,1,1,0,0,0,.24,0l2.61-.87a.76.76,0,0,0-.48-1.45l-2.61.87A.77.77,0,0,0,47.65,19.47Z" transform="translate(0 -4.02)"/><path class="cls-3" d="M48.19,35.23l-3-2.75a.76.76,0,1,0-1,1.13l3,2.75a.78.78,0,0,0,.51.2.74.74,0,0,0,.56-.26.76.76,0,0,0-.05-1.07Z" transform="translate(0 -4.02)"/><path class="cls-3" d="M51.22,27.36l-2.61-.86a.76.76,0,0,0-1,.48.78.78,0,0,0,.48,1l2.61.86a.67.67,0,0,0,.24,0,.77.77,0,0,0,.72-.53A.76.76,0,0,0,51.22,27.36Z" transform="translate(0 -4.02)"/></g></svg>