<svg id="Layer_2" data-name="Layer 2" xmlns="http://www.w3.org/2000/svg" viewBox="0 0 51.01 52"><defs><style>.cls-1{fill:#cd2122;}</style></defs><title>whatsapp</title><path class="cls-1" d="M44.57,7.54A25.18,25.18,0,0,0,11.81,4.8a1,1,0,0,0-.23,1.42,1,1,0,0,0,1.4.23A23.05,23.05,0,0,1,26.59,2a23.73,23.73,0,0,1,0,47.46,23.18,23.18,0,0,1-11.25-2.92,1,1,0,0,0-.74-.09L3.44,49.54l3.05-11a1,1,0,0,0-.11-.79A24,24,0,0,1,7.54,12a1,1,0,0,0-.23-1.41,1,1,0,0,0-1.4.23A26.05,26.05,0,0,0,4.44,38.4L1,50.71a1,1,0,0,0,.25,1A1,1,0,0,0,2,52a.75.75,0,0,0,.26,0l12.48-3.41A25.16,25.16,0,0,0,44.57,44a26,26,0,0,0,0-36.43Z" transform="translate(-1)"/><path class="cls-1" d="M43,38.07a1,1,0,0,0,1.39-.28,21.92,21.92,0,0,0-2.68-27.37,21.2,21.2,0,0,0-30.28,0A21.69,21.69,0,0,0,5.18,25.76a22,22,0,0,0,2.93,11l.65,1.12-2,7.08A1,1,0,0,0,8,46.18l7.22-2,1.06.59a21.22,21.22,0,0,0,10.28,2.66,21,21,0,0,0,11.87-3.64,1,1,0,0,0,.28-1.4,1,1,0,0,0-1.39-.28A19.23,19.23,0,0,1,17.27,43l-1.41-.79a1,1,0,0,0-.75-.09l-5.9,1.62L10.81,38a1.08,1.08,0,0,0-.1-.79l-.87-1.49a19.89,19.89,0,0,1-2.65-9.93A19.56,19.56,0,0,1,26.59,6.09,19.71,19.71,0,0,1,42.74,36.66,1,1,0,0,0,43,38.07Z" transform="translate(-1)"/><path class="cls-1" d="M22.93,22.64l.07-.08a2.8,2.8,0,0,0,.32-3c-.52-1.22-1.86-4.33-2-4.63a2.3,2.3,0,0,0-2.2-1.34,11.56,11.56,0,0,0-1.46,0h0c-.16,0-3.77.61-4.39,6.09-.29,2.52.86,5.53,3.42,8.93a25.24,25.24,0,0,0,9.29,8,17.19,17.19,0,0,0,7.32,2.15h.26a6.54,6.54,0,0,0,5.28-2.34,5.14,5.14,0,0,0,1.05-2.33A12.35,12.35,0,0,0,40,32.6a2.34,2.34,0,0,0-1.22-2.29l-4.32-2.16a2.38,2.38,0,0,0-3,.54v0a7,7,0,0,0-.71.89c-.26.36-.79,1.07-1,1.31-.47,0-2.05-.67-4.28-2.42a16.35,16.35,0,0,1-3.75-4.29.22.22,0,0,1,0-.08c.35-.35.91-1,1.3-1.48Zm1.23,7.45a22.06,22.06,0,0,0,3.24,2.15c.6.31,2.42,1.25,3.55.24a12.66,12.66,0,0,0,1.33-1.66l.46-.61.14-.14c.18-.2.26-.29.66-.09,1.21.59,4.22,2.11,4.33,2.16a.56.56,0,0,1,.09.4c0,.85-.06,1.15-.06,1.21v0a3.14,3.14,0,0,1-.69,1.42,4.77,4.77,0,0,1-3.71,1.49,14.85,14.85,0,0,1-6.61-1.92,23.06,23.06,0,0,1-8.6-7.42c-2.21-2.93-3.25-5.51-3-7.46.42-3.68,2.41-4.26,2.67-4.32.1,0,.42,0,1.17,0a.58.58,0,0,1,.4.11c0,.11,1.46,3.38,2,4.63.26.63.1.81,0,.9l0,0-.06.07c-.57.69-1,1.16-1.21,1.39a2.12,2.12,0,0,0-.29,2.5,18.4,18.4,0,0,0,4.26,4.88Z" transform="translate(-1)"/><path class="cls-1" d="M9.33,9.28A1,1,0,0,0,10,9a1,1,0,0,0,.07-1.43,1,1,0,0,0-1.42-.07h0A1,1,0,0,0,8.59,9,1,1,0,0,0,9.33,9.28Z" transform="translate(-1)"/><path class="cls-1" d="M40.28,39.7h0a1,1,0,0,0,.07,1.43,1,1,0,0,0,1.41-.07,1,1,0,0,0-.06-1.43A1,1,0,0,0,40.28,39.7Z" transform="translate(-1)"/></svg>