<svg id="Layer_1" data-name="Layer 1" xmlns="http://www.w3.org/2000/svg" xmlns:xlink="http://www.w3.org/1999/xlink" viewBox="0 0 51.47 37.56"><defs><style>.cls-1{fill:none;}.cls-2{clip-path:url(#clip-path);}.cls-3{fill:#cd2122;}</style><clipPath id="clip-path" transform="translate(-0.04 -7.22)"><rect class="cls-1" x="0.04" y="0.01" width="51.47" height="51.98"/></clipPath></defs><title>youtube</title><g class="cls-2"><path class="cls-3" d="M26,7.22H26a1,1,0,0,0-1,1h0a1,1,0,0,0,1,1H26a1,1,0,0,0,1-1h0A1,1,0,0,0,26,7.22Z" transform="translate(-0.04 -7.22)"/><path class="cls-3" d="M50.44,13.53a7.29,7.29,0,0,0-5.08-5.21c-2.55-.7-9.66-1-15.18-1.06a1,1,0,0,0,0,2c7.64.13,12.85.48,14.68,1a5.26,5.26,0,0,1,3.67,3.77c1,3.78,1,11.88,1,12s0,8.17-1,12a5.25,5.25,0,0,1-3.67,3.76c-3.68,1-18.9,1-19.06,1s-15.37,0-19-1A5.26,5.26,0,0,1,3,38c-1-3.78-1-11.88-1-12s0-8.17,1-12a5.26,5.26,0,0,1,3.67-3.76c1.87-.52,7.24-.87,15.12-1a1,1,0,0,0,0-2c-5.69.09-13,.34-15.62,1.06a7.28,7.28,0,0,0-5.08,5.2C.05,17.55,0,25.65,0,26s0,8.44,1.06,12.48a7.29,7.29,0,0,0,5.08,5.21c3.94,1.08,19,1.1,19.58,1.1s15.65,0,19.59-1.09a7.28,7.28,0,0,0,5.08-5.2c1.06-4,1.07-12.14,1.07-12.48S51.49,17.57,50.44,13.53Z" transform="translate(-0.04 -7.22)"/><path class="cls-3" d="M5.87,23.3a1,1,0,0,0-1,1v8.27a1,1,0,1,0,2,0V24.32A1,1,0,0,0,5.87,23.3Z" transform="translate(-0.04 -7.22)"/><path class="cls-3" d="M5.87,18.69a1,1,0,0,0-1,1h0a1,1,0,0,0,1,1,1,1,0,0,0,1-1h0A1,1,0,0,0,5.87,18.69Z" transform="translate(-0.04 -7.22)"/><path class="cls-3" d="M33.92,25.28,21.46,18a1,1,0,0,0-1,0,1,1,0,0,0-.51.88V33.46a1,1,0,0,0,.5.88,1,1,0,0,0,.5.14,1,1,0,0,0,.51-.14L33.92,27a1,1,0,0,0,.5-.88A1,1,0,0,0,33.92,25.28ZM22,31.7V20.61l9.46,5.55Z" transform="translate(-0.04 -7.22)"/></g></svg>